<?xml version="1.0" encoding="UTF-8"?>
<svg id="Layer_1" data-name="Layer 1" xmlns="http://www.w3.org/2000/svg" xmlns:xlink="http://www.w3.org/1999/xlink" viewBox="0 0 2000 2000">
  <defs>
    <linearGradient id="linear-gradient" x1="-39038.45" y1="-53021.07" x2="-39061.74" y2="-53013.14" gradientTransform="translate(39406.56 -52792.32) scale(1 -1)" gradientUnits="userSpaceOnUse">
      <stop offset=".23" stop-color="#faa61a"/>
      <stop offset=".76" stop-color="#ffc20e"/>
    </linearGradient>
    <radialGradient id="radial-gradient" cx="-38959.92" cy="-53051.51" fx="-38959.92" fy="-53051.51" r="133.44" gradientTransform="translate(39406.56 -52792.32) scale(1 -1)" gradientUnits="userSpaceOnUse">
      <stop offset=".35" stop-color="#58ab40"/>
      <stop offset=".76" stop-color="#80c342"/>
    </radialGradient>
    <linearGradient id="linear-gradient-2" x1="55120.19" y1="-52965.25" x2="55120.19" y2="-52937.15" gradientTransform="translate(55537.87 -52792.32) rotate(-180)" xlink:href="#linear-gradient"/>
    <linearGradient id="linear-gradient-3" x1="55459.34" y1="-53021.07" x2="55436.05" y2="-53013.14" gradientTransform="translate(55537.87 -52792.32) rotate(-180)" xlink:href="#linear-gradient"/>
    <linearGradient id="linear-gradient-4" x1="-39377.59" y1="-52965.25" x2="-39377.59" y2="-52937.15" xlink:href="#linear-gradient"/>
    <radialGradient id="radial-gradient-2" cx="-39406.56" fx="-39406.56" xlink:href="#radial-gradient"/>
    <linearGradient id="linear-gradient-5" x1="55056.19" y1="37148.94" x2="55056.19" y2="37177.05" gradientTransform="translate(55473.87 -37062.69) rotate(-180) scale(1 -1)" xlink:href="#linear-gradient"/>
    <radialGradient id="radial-gradient-3" cy="-52792.32" fy="-52792.32" xlink:href="#radial-gradient"/>
    <linearGradient id="linear-gradient-6" x1="-39038.45" y1="37107.66" x2="-39061.74" y2="37115.6" gradientTransform="translate(39406.56 -37077.23)" xlink:href="#linear-gradient"/>
    <linearGradient id="linear-gradient-7" x1="55279.51" y1="37278.53" x2="55279.51" y2="37306.64" gradientTransform="translate(55473.87 -37062.69) rotate(-180) scale(1 -1)" xlink:href="#linear-gradient"/>
    <linearGradient id="linear-gradient-8" x1="-39090.27" y1="37278.53" x2="-39090.27" y2="37306.64" gradientTransform="translate(39342.56 -37062.69)" xlink:href="#linear-gradient"/>
    <linearGradient id="linear-gradient-9" x1="55236.02" y1="-52891.48" x2="55212.73" y2="-52883.54" gradientTransform="translate(55537.87 -52792.32) rotate(-180)" xlink:href="#linear-gradient"/>
    <linearGradient id="linear-gradient-10" x1="-39261.77" y1="-52891.48" x2="-39285.06" y2="-52883.54" xlink:href="#linear-gradient"/>
    <linearGradient id="linear-gradient-11" x1="-39154.27" y1="-52835.66" x2="-39154.27" y2="-52807.55" xlink:href="#linear-gradient"/>
    <radialGradient id="radial-gradient-4" cx="-39183.24" cy="-52921.91" fx="-39183.24" fy="-52921.91" r="133.44" xlink:href="#radial-gradient"/>
    <linearGradient id="linear-gradient-12" x1="55236.02" y1="37237.25" x2="55212.73" y2="37245.19" gradientTransform="translate(55537.87 -37077.23) rotate(-180) scale(1 -1)" xlink:href="#linear-gradient"/>
    <linearGradient id="linear-gradient-13" x1="-39261.77" y1="37237.25" x2="-39285.06" y2="37245.19" gradientTransform="translate(39406.56 -37077.23)" xlink:href="#linear-gradient"/>
    <linearGradient id="linear-gradient-14" x1="55343.51" y1="-52835.66" x2="55343.51" y2="-52807.55" gradientTransform="translate(55537.87 -52792.32) rotate(-180)" xlink:href="#linear-gradient"/>
    <linearGradient id="linear-gradient-15" x1="-39313.59" y1="37148.94" x2="-39313.59" y2="37177.05" gradientTransform="translate(39342.56 -37062.69)" xlink:href="#linear-gradient"/>
    <radialGradient id="radial-gradient-5" cx="-39406.56" cy="-52792.32" fx="-39406.56" fy="-52792.32" xlink:href="#radial-gradient"/>
    <linearGradient id="linear-gradient-16" x1="55459.34" y1="37107.66" x2="55436.05" y2="37115.6" gradientTransform="translate(55537.87 -37077.23) rotate(-180) scale(1 -1)" xlink:href="#linear-gradient"/>
    <pattern id="Foliage" x="0" y="0" width="800" height="800" patternTransform="translate(-2274.89 -12063.97) rotate(-90) scale(.7)" patternUnits="userSpaceOnUse" viewBox="0 0 446.64 259.18">
      <g>
        <rect width="800" height="800" style="fill: none;"/>
        <g>
          <path d="M378.84,190.69c5.52,4.58,10.66,12.46,11.44,22.75,1.08-10.23,3.2-18.13,8.21-23.96,0,0-6.33,3.1-8.62,9.15-2.96-5.25-11.04-7.94-11.04-7.94Z" style="fill: #2c973e;"/>
          <path d="M364.84,139.81c1.22,5.97,6.31,11.18,12.92,13.73-2.71-6.99-1.7-13.8,2.15-19.79-.9,7.77,1.47,13.21,5.79,18.04-1.36-4.83-1.24-9.27,1.08-13.87-.94,8.48,6.17,12.79,15.62,18.44,12.66,7.58,17.28,16.04,19.25,27.23-3.45-6.87-9.9-13.14-27.86-17.29-22.3-5.16-30.39-12.42-28.95-26.49Z" style="fill: #2c973e;"/>
          <path d="M365.11,232.01c-4.69-4.6-6.91-12.18-7.27-21.72-.47-12.53-5.41-17.66-13.33-18.53,11.8,4.58,4.44,17.12,7.94,25.85-6.44-4.79-4.38-20.68-17.63-21.4,9.78,3.2,2.83,16.68,9.29,24.5-7.81-.11-11.4,6.13-21.54,3.23,4.71,3.64,9.96,5.92,18.85,5.92-6.25,3.86-9,8.63-11.31,15.35,10.13-10.59,24.85-14.66,35-13.19Z" style="fill: url(#linear-gradient);"/>
          <path d="M482.48,266.46c29.44,4.02,46.23,20.79,49.15,36.55-3.92-9.25-12.98-15.22-23.6-18.63,10.62,14.01,7.19,31.87,21.12,41.7-10.37-11.04-7.21-24.46-14.9-36.73,12.26,6.9,14.12,16.67,17.02,27.15,4.38,15.84,11.54,20.09,17.22,22.18-11.7.45-28.66-4.53-36.78-20.1-8.61-16.51-1.45-34.41-22.48-43.77,9.6,8.06,14.73,19.52,8.69,34.42,2.26-21.92-20.63-25.5-24.31-40.45-.63,11.53,7.18,21.22,14.55,25.9-10.29-3.37-19.21-8.99-23.42-21.82-6.92,21.39,5.31,38.45,12.9,38.45,2.63,0,4.54-1.67,4.54-4.16,0-6.45-11.64-6.45-14.6-18.85,5.32,10.82,25.55,8.87,25.55,20.76,0,9.74-13.64,14.04-22.36,7.98,6.39,8.34,21.26,8.62,25.55-1.42.66,4.31-1.31,10.76-7.45,13.13-6.99,2.7-13.48-2.48-13.48-2.48,7.64,11.01,20.94,3.67,34.07,3.9,10.87.19,18.11,5.82,21.29,11.18-2.97-1.49-4.64-1.89-7.63-1.95,6.29,3.88,10.85,12.8,9.05,21.47-1.3-6.25-8.57-10.68-22.36-11.63-15.56-1.08-23.81-3.57-29.1-9.3,11.2,4.96,28.94-1.91,40.99,6.03-7.45-8.54-23.93-6.09-35.71-7.98-20.71-3.32-33.32-38.29-31.71-53.63-5.66,23.42,9.46,36.2,12.79,49.13,3.63,14.13-3.37,23.83-9.95,28.8,10.28-15.4-7.42-24.63-4.61-44.36-5.23,19.19,4.44,24.66,4.44,34.6s-8.58,12.99-10.29,25.55c-1.71-12.55-10.29-15.79-10.29-25.55s9.66-15.41,4.44-34.6c2.8,19.73-14.89,28.96-4.61,44.36-6.58-4.98-13.58-14.67-9.95-28.8,3.32-12.93,18.44-25.71,12.79-49.13,1.62,15.35-11,50.31-31.71,53.63-11.78,1.89-28.26-.56-35.72,7.98,12.05-7.94,29.78-1.08,40.99-6.03-5.29,5.73-13.54,8.23-29.1,9.3-13.79.96-21.06,5.38-22.36,11.63-1.8-8.67,2.75-17.59,9.05-21.47-2.99.07-4.66.46-7.63,1.95,3.19-5.36,10.42-10.99,21.29-11.18,13.13-.23,26.42,7.11,34.07-3.9,0,0-6.5,5.18-13.48,2.48-6.15-2.37-8.12-8.82-7.45-13.13,4.29,10.04,19.16,9.76,25.55,1.42-8.72,6.05-22.36,1.75-22.36-7.98,0-11.89,20.23-9.94,25.55-20.76-2.96,12.41-14.6,12.41-14.6,18.85,0,2.49,1.91,4.16,4.54,4.16,7.58,0,19.82-17.06,12.9-38.45-4.2,12.83-13.13,18.45-23.42,21.82,7.37-4.68,15.18-14.37,14.55-25.9-3.68,14.95-26.56,18.53-24.31,40.45-6.03-14.9-.91-26.37,8.7-34.42-21.03,9.36-13.87,27.26-22.48,43.77-8.12,15.57-25.08,20.55-36.78,20.1,5.67-2.09,12.84-6.33,17.22-22.18,2.9-10.48,4.77-20.25,17.02-27.15-7.69,12.27-4.54,25.69-14.9,36.73,13.92-9.83,10.5-27.68,21.11-41.7-10.62,3.41-19.68,9.38-23.6,18.63,2.91-15.76,19.71-32.53,49.15-36.55-30.33-1.29-36.17,15.55-51.46,16.16-9.68.38-18.14-8.39-28.03-13.68,12.11,3.07,31.11,11.33,41.16-2.13,0,0-6.19,5.26-18.28,3.73-12.27-1.56-23.46-9.4-54.12-11.36,30.65-1.96,41.84-9.8,54.12-11.36,12.08-1.54,18.28,3.72,18.28,3.72-10.06-13.46-29.05-5.2-41.16-2.13,9.9-5.29,18.35-14.06,28.03-13.68,15.28.61,21.13,17.45,51.46,16.16-29.44-4.02-46.23-20.79-49.15-36.55,3.92,9.25,12.98,15.22,23.6,18.63-10.62-14.01-7.19-31.87-21.11-41.7,10.37,11.04,7.21,24.46,14.9,36.73-12.26-6.89-14.13-16.67-17.02-27.15-4.38-15.85-11.55-20.09-17.22-22.18,11.7-.45,28.66,4.53,36.78,20.1,8.61,16.51,1.45,34.41,22.48,43.77-9.6-8.06-14.73-19.52-8.7-34.42-2.25,21.92,20.63,25.5,24.31,40.45.63-11.53-7.18-21.22-14.55-25.9,10.29,3.37,19.22,8.99,23.42,21.82,6.93-21.39-5.31-38.45-12.9-38.45-2.63,0-4.54,1.67-4.54,4.16,0,6.45,11.64,6.45,14.6,18.85-5.32-10.82-25.55-8.87-25.55-20.76,0-9.74,13.64-14.04,22.36-7.99-6.39-8.34-21.26-8.62-25.55,1.42-.66-4.31,1.31-10.76,7.45-13.13,6.98-2.7,13.48,2.48,13.48,2.48-7.64-11.01-20.94-3.67-34.07-3.9-10.87-.19-18.11-5.82-21.29-11.18,2.97,1.48,4.64,1.88,7.63,1.95-6.29-3.88-10.85-12.8-9.05-21.47,1.3,6.25,8.57,10.68,22.36,11.63,15.56,1.08,23.81,3.57,29.1,9.3-11.2-4.96-28.94,1.91-40.99-6.03,7.45,8.54,23.93,6.09,35.72,7.98,20.71,3.32,33.32,38.29,31.71,53.63,5.65-23.42-9.46-36.2-12.79-49.13-3.63-14.13,3.37-23.83,9.95-28.8-10.28,15.4,7.42,24.63,4.61,44.36,5.23-19.19-4.44-24.66-4.44-34.6s8.59-13,10.29-25.55c1.71,12.55,10.29,15.79,10.29,25.55s-9.66,15.41-4.44,34.6c-2.8-19.73,14.89-28.96,4.61-44.36,6.58,4.98,13.58,14.67,9.95,28.8-3.33,12.93-18.44,25.71-12.79,49.13-1.62-15.35,11-50.31,31.71-53.63,11.78-1.89,28.26.56,35.71-7.98-12.05,7.94-29.79,1.07-40.99,6.03,5.29-5.74,13.54-8.23,29.1-9.3,13.78-.95,21.06-5.38,22.36-11.63,1.8,8.67-2.76,17.59-9.05,21.47,2.99-.07,4.66-.47,7.63-1.95-3.19,5.36-10.42,10.99-21.29,11.18-13.13.23-26.43-7.11-34.07,3.9,0,0,6.5-5.18,13.48-2.48,6.14,2.37,8.12,8.82,7.45,13.13-4.29-10.04-19.16-9.76-25.55-1.42,8.72-6.05,22.36-1.75,22.36,7.99,0,11.89-20.23,9.94-25.55,20.76,2.95-12.4,14.6-12.4,14.6-18.85,0-2.49-1.91-4.16-4.54-4.16-7.59,0-19.82,17.06-12.9,38.45,4.21-12.83,13.13-18.45,23.42-21.82-7.37,4.68-15.18,14.37-14.55,25.9,3.68-14.95,26.56-18.53,24.31-40.45,6.03,14.9.91,26.37-8.69,34.42,21.03-9.36,13.87-27.26,22.48-43.77,8.12-15.57,25.08-20.55,36.78-20.1-5.68,2.09-12.84,6.33-17.22,22.18-2.9,10.48-4.77,20.25-17.02,27.15,7.69-12.26,4.54-25.69,14.9-36.73-13.92,9.83-10.5,27.68-21.12,41.7,10.62-3.41,19.68-9.38,23.6-18.63-2.92,15.76-19.71,32.53-49.15,36.55,30.33,1.29,36.17-15.55,51.45-16.16,9.68-.38,18.14,8.39,28.04,13.68-12.11-3.07-31.11-11.33-41.16,2.13,0,0,6.19-5.26,18.28-3.72,12.27,1.56,23.46,9.4,54.12,11.36-30.65,1.96-41.84,9.8-54.12,11.36-12.08,1.53-18.28-3.73-18.28-3.73,10.06,13.46,29.05,5.2,41.16,2.13-9.9,5.29-18.35,14.06-28.04,13.68-15.28-.61-21.13-17.45-51.45-16.16ZM515.84,259.19c4.61,1.24,8.63,3.77,14.49,3.77,7.11,0,11.07-2.75,16.74-3.77-5.67-1.02-9.63-3.77-16.74-3.77-5.86,0-9.87,2.53-14.49,3.77ZM443.62,168.87c0,5.12,3.02,8.4,3.02,12.12,0-3.73,3.02-7,3.02-12.12,0-4.57-2.25-6.65-3.02-11.43-.77,4.78-3.02,6.87-3.02,11.43ZM377.44,259.19c-4.61-1.24-8.63-3.77-14.49-3.77-7.11,0-11.07,2.75-16.74,3.77,5.67,1.02,9.63,3.77,16.74,3.77,5.85,0,9.87-2.53,14.49-3.77ZM449.66,349.5c0-5.12-3.02-8.4-3.02-12.12,0,3.72-3.02,7-3.02,12.12,0,4.57,2.25,6.65,3.02,11.43.77-4.78,3.02-6.87,3.02-11.43ZM491.71,259.19c-9.94,0-24.09-4.98-34.95-3.02,3.45-2.1,4.98-3.67,7.45-6.74-4.41.43-6.76.8-10.11,2.31,2.66-6.02,3.19-9.4,3.72-15.44-3.07,3.57-4.64,5.74-6.56,10.65.71-12.42-4.26-15.25-4.61-31.76-.36,16.51-5.32,19.34-4.61,31.76-1.92-4.91-3.49-7.08-6.56-10.65.53,6.04,1.06,9.42,3.73,15.44-3.36-1.51-5.71-1.87-10.12-2.31,2.47,3.07,4,4.64,7.45,6.74-10.87-1.97-25.02,3.02-34.95,3.02,9.94,0,24.09,4.98,34.95,3.02-3.45,2.1-4.98,3.67-7.45,6.74,4.41-.43,6.76-.8,10.12-2.31-2.66,6.02-3.2,9.4-3.73,15.44,3.07-3.57,4.64-5.74,6.56-10.65-.71,12.42,4.26,15.25,4.61,31.76.36-16.51,5.32-19.34,4.61-31.76,1.93,4.91,3.5,7.08,6.56,10.65-.53-6.04-1.06-9.42-3.72-15.44,3.36,1.51,5.71,1.87,10.11,2.31-2.47-3.07-4-4.64-7.45-6.74,10.87,1.96,25.02-3.02,34.95-3.02Z" style="fill: url(#radial-gradient);"/>
          <path d="M391.76,137.92c2.64,13.83,25.37,16.26,30.29,34.06,3.77-19.12,21.29-19.87,21.54-33.11-3.18,7.8-10.84,5.79-15.88,12.12.85-6.15,4.63-11.89,12.38-15.08-7.67-1.08-15.63,1.83-19.12,9.56-2.56-4.17-2.81-8.45-.67-13.87-4.71,3.63-7.49,9.3-5.65,16.56-7.27-7.27-17.9-3.23-22.88-10.23Z" style="fill: url(#linear-gradient-2);"/>
          <path d="M464.86,259.19c-4.26-.66-9.39-3.2-14.13-1.22,2.32-1.8,1.14-3.51,2.53-5.2-1.92,1.39-3.51.5-4.99,2.75,1.54-5.31-.53-8.14-1.63-14.12-1.1,5.98-3.17,8.81-1.63,14.12-1.47-2.24-3.07-1.36-4.98-2.75,1.38,1.68.21,3.39,2.53,5.2-4.74-1.98-9.87.56-14.13,1.22,4.26.67,9.39,3.2,14.13,1.22-2.32,1.8-1.14,3.52-2.53,5.2,1.92-1.39,3.51-.5,4.98-2.74-1.54,5.31.53,8.14,1.63,14.12,1.1-5.98,3.17-8.81,1.63-14.12,1.48,2.24,3.07,1.36,4.99,2.74-1.38-1.68-.21-3.39-2.53-5.2,4.74,1.98,9.87-.55,14.13-1.22Z" style="fill: #ffc20e;"/>
        </g>
        <g>
          <path d="M81.53,232.01c4.69-4.6,6.91-12.18,7.27-21.72.47-12.53,5.41-17.66,13.33-18.53-11.8,4.58-4.44,17.12-7.94,25.85,6.44-4.79,4.38-20.68,17.63-21.4-9.78,3.2-2.84,16.68-9.29,24.5,7.81-.11,11.4,6.13,21.54,3.23-4.72,3.64-9.96,5.92-18.85,5.92,6.25,3.86,9,8.63,11.31,15.35-10.13-10.59-24.85-14.66-35-13.19Z" style="fill: url(#linear-gradient-3);"/>
          <path d="M67.8,190.69c-5.52,4.58-10.66,12.46-11.44,22.75-1.08-10.23-3.2-18.13-8.21-23.96,0,0,6.33,3.1,8.62,9.15,2.96-5.25,11.04-7.94,11.04-7.94Z" style="fill: #2c973e;"/>
          <path d="M81.8,139.81c-1.22,5.97-6.31,11.18-12.92,13.73,2.71-6.99,1.7-13.8-2.15-19.79.9,7.77-1.47,13.21-5.79,18.04,1.36-4.83,1.24-9.27-1.08-13.87.94,8.48-6.17,12.79-15.62,18.44-12.66,7.58-17.28,16.04-19.25,27.23,3.45-6.87,9.9-13.14,27.86-17.29,22.3-5.16,30.39-12.42,28.95-26.49Z" style="fill: #2c973e;"/>
          <path d="M54.88,137.92c-2.64,13.83-25.37,16.26-30.29,34.06-3.77-19.12-21.29-19.87-21.54-33.11,3.18,7.8,10.84,5.79,15.88,12.12-.85-6.15-4.63-11.89-12.38-15.08,7.67-1.08,15.62,1.83,19.12,9.56,2.56-4.17,2.81-8.45.67-13.87,4.71,3.63,7.49,9.3,5.65,16.56,7.27-7.27,17.9-3.23,22.88-10.23Z" style="fill: url(#linear-gradient-4);"/>
          <path d="M35.84,266.46c29.44,4.02,46.23,20.79,49.15,36.55-3.92-9.25-12.98-15.22-23.6-18.63,10.62,14.01,7.19,31.87,21.12,41.7-10.37-11.04-7.21-24.46-14.9-36.73,12.26,6.9,14.12,16.67,17.02,27.15,4.38,15.84,11.54,20.09,17.22,22.18-11.7.45-28.66-4.53-36.78-20.1-8.61-16.51-1.45-34.41-22.48-43.77,9.6,8.06,14.73,19.52,8.69,34.42,2.26-21.92-20.63-25.5-24.31-40.45-.63,11.53,7.18,21.22,14.55,25.9-10.29-3.37-19.21-8.99-23.42-21.82-6.92,21.39,5.31,38.45,12.9,38.45,2.63,0,4.54-1.67,4.54-4.16,0-6.45-11.64-6.45-14.6-18.85,5.32,10.82,25.55,8.87,25.55,20.76,0,9.74-13.64,14.04-22.36,7.98,6.39,8.34,21.26,8.62,25.55-1.42.66,4.31-1.31,10.76-7.45,13.13-6.99,2.7-13.48-2.48-13.48-2.48,7.64,11.01,20.94,3.67,34.07,3.9,10.87.19,18.11,5.82,21.29,11.18-2.97-1.49-4.64-1.89-7.63-1.95,6.29,3.88,10.85,12.8,9.05,21.47-1.3-6.25-8.57-10.68-22.36-11.63-15.56-1.08-23.81-3.57-29.1-9.3,11.2,4.96,28.94-1.91,40.99,6.03-7.45-8.54-23.93-6.09-35.71-7.98-20.71-3.32-33.32-38.29-31.71-53.63-5.66,23.42,9.46,36.2,12.79,49.13,3.63,14.13-3.37,23.83-9.95,28.8,10.28-15.4-7.42-24.63-4.61-44.36-5.23,19.19,4.44,24.66,4.44,34.6S1.71,365.51,0,378.06c-1.7-12.55-10.29-15.79-10.29-25.55s9.66-15.41,4.44-34.6c2.8,19.73-14.89,28.96-4.61,44.36-6.58-4.98-13.58-14.67-9.95-28.8,3.32-12.93,18.44-25.71,12.79-49.13,1.62,15.35-11,50.31-31.71,53.63-11.78,1.89-28.26-.56-35.72,7.98,12.05-7.94,29.78-1.08,40.99-6.03-5.29,5.73-13.54,8.23-29.1,9.3-13.79.96-21.06,5.38-22.36,11.63-1.8-8.67,2.75-17.59,9.05-21.47-2.99.07-4.66.46-7.63,1.95,3.19-5.36,10.42-10.99,21.29-11.18,13.13-.23,26.42,7.11,34.07-3.9,0,0-6.5,5.18-13.48,2.48-6.15-2.37-8.12-8.82-7.45-13.13,4.29,10.04,19.16,9.76,25.55,1.42-8.72,6.05-22.36,1.75-22.36-7.98,0-11.89,20.23-9.94,25.55-20.76-2.96,12.41-14.6,12.41-14.6,18.85,0,2.49,1.91,4.16,4.54,4.16,7.58,0,19.82-17.06,12.9-38.45-4.2,12.83-13.13,18.45-23.42,21.82,7.37-4.68,15.18-14.37,14.55-25.9-3.68,14.95-26.56,18.53-24.31,40.45-6.03-14.9-.91-26.37,8.7-34.42-21.03,9.36-13.87,27.26-22.48,43.77-8.12,15.57-25.08,20.55-36.78,20.1,5.67-2.09,12.84-6.33,17.22-22.18,2.9-10.48,4.77-20.25,17.02-27.15-7.69,12.27-4.54,25.69-14.9,36.73,13.92-9.83,10.5-27.68,21.11-41.7-10.62,3.41-19.68,9.38-23.6,18.63,2.91-15.76,19.71-32.53,49.15-36.55-30.33-1.29-36.17,15.55-51.46,16.16-9.68.38-18.14-8.39-28.03-13.68,12.11,3.07,31.11,11.33,41.16-2.13,0,0-6.19,5.26-18.28,3.73-12.27-1.56-23.46-9.4-54.12-11.36,30.65-1.96,41.84-9.8,54.12-11.36,12.08-1.54,18.28,3.72,18.28,3.72-10.06-13.46-29.05-5.2-41.16-2.13,9.9-5.29,18.35-14.06,28.03-13.68,15.28.61,21.13,17.45,51.46,16.16-29.44-4.02-46.23-20.79-49.15-36.55,3.92,9.25,12.98,15.22,23.6,18.63-10.62-14.01-7.19-31.87-21.11-41.7,10.37,11.04,7.21,24.46,14.9,36.73-12.26-6.89-14.13-16.67-17.02-27.15-4.38-15.85-11.55-20.09-17.22-22.18,11.7-.45,28.66,4.53,36.78,20.1,8.61,16.51,1.45,34.41,22.48,43.77-9.6-8.06-14.73-19.52-8.7-34.42-2.25,21.92,20.63,25.5,24.31,40.45.63-11.53-7.18-21.22-14.55-25.9,10.29,3.37,19.22,8.99,23.42,21.82,6.93-21.39-5.31-38.45-12.9-38.45-2.63,0-4.54,1.67-4.54,4.16,0,6.45,11.64,6.45,14.6,18.85-5.32-10.82-25.55-8.87-25.55-20.76,0-9.74,13.64-14.04,22.36-7.99-6.39-8.34-21.26-8.62-25.55,1.42-.66-4.31,1.31-10.76,7.45-13.13,6.98-2.7,13.48,2.48,13.48,2.48-7.64-11.01-20.94-3.67-34.07-3.9-10.87-.19-18.11-5.82-21.29-11.18,2.97,1.48,4.64,1.88,7.63,1.95-6.29-3.88-10.85-12.8-9.05-21.47,1.3,6.25,8.57,10.68,22.36,11.63,15.56,1.08,23.81,3.57,29.1,9.3-11.2-4.96-28.94,1.91-40.99-6.03,7.45,8.54,23.93,6.09,35.72,7.98,20.71,3.32,33.32,38.29,31.71,53.63,5.65-23.42-9.46-36.2-12.79-49.13-3.63-14.13,3.37-23.83,9.95-28.8-10.28,15.4,7.42,24.63,4.61,44.36,5.23-19.19-4.44-24.66-4.44-34.6S-1.71,152.86,0,140.31c1.71,12.55,10.29,15.79,10.29,25.55s-9.66,15.41-4.44,34.6c-2.8-19.73,14.89-28.96,4.61-44.36,6.58,4.98,13.58,14.67,9.95,28.8-3.33,12.93-18.44,25.71-12.79,49.13-1.62-15.35,11-50.31,31.71-53.63,11.78-1.89,28.26.56,35.71-7.98-12.05,7.94-29.79,1.07-40.99,6.03,5.29-5.74,13.54-8.23,29.1-9.3,13.78-.95,21.06-5.38,22.36-11.63,1.8,8.67-2.76,17.59-9.05,21.47,2.99-.07,4.66-.47,7.63-1.95-3.19,5.36-10.42,10.99-21.29,11.18-13.13.23-26.43-7.11-34.07,3.9,0,0,6.5-5.18,13.48-2.48,6.14,2.37,8.12,8.82,7.45,13.13-4.29-10.04-19.16-9.76-25.55-1.42,8.72-6.05,22.36-1.75,22.36,7.99,0,11.89-20.23,9.94-25.55,20.76,2.96-12.4,14.6-12.4,14.6-18.85,0-2.49-1.91-4.16-4.54-4.16-7.59,0-19.82,17.06-12.9,38.45,4.21-12.83,13.13-18.45,23.42-21.82-7.37,4.68-15.18,14.37-14.55,25.9,3.68-14.95,26.56-18.53,24.31-40.45,6.03,14.9.91,26.37-8.69,34.42,21.03-9.36,13.87-27.26,22.48-43.77,8.12-15.57,25.08-20.55,36.78-20.1-5.68,2.09-12.84,6.33-17.22,22.18-2.9,10.48-4.77,20.25-17.02,27.15,7.69-12.26,4.54-25.69,14.9-36.73-13.92,9.83-10.5,27.68-21.12,41.7,10.62-3.41,19.68-9.38,23.6-18.63-2.92,15.76-19.71,32.53-49.15,36.55,30.33,1.29,36.17-15.55,51.45-16.16,9.68-.38,18.14,8.39,28.04,13.68-12.11-3.07-31.11-11.33-41.16,2.13,0,0,6.19-5.26,18.28-3.72,12.27,1.56,23.46,9.4,54.12,11.36-30.65,1.96-41.84,9.8-54.12,11.36-12.08,1.53-18.28-3.73-18.28-3.73,10.06,13.46,29.05,5.2,41.16,2.13-9.9,5.29-18.35,14.06-28.04,13.68-15.28-.61-21.13-17.45-51.45-16.16ZM69.2,259.19c4.61,1.24,8.63,3.77,14.49,3.77,7.11,0,11.07-2.75,16.74-3.77-5.67-1.02-9.63-3.77-16.74-3.77-5.86,0-9.87,2.53-14.49,3.77ZM-3.02,168.87C-3.02,174,0,177.27,0,181c0-3.73,3.02-7,3.02-12.12,0-4.57-2.25-6.65-3.02-11.43-.77,4.78-3.02,6.87-3.02,11.43ZM-69.2,259.19c-4.61-1.24-8.63-3.77-14.49-3.77-7.11,0-11.07,2.75-16.74,3.77,5.67,1.02,9.63,3.77,16.74,3.77,5.85,0,9.88-2.53,14.49-3.77ZM3.02,349.5C3.02,344.37,0,341.1,0,337.37c0,3.72-3.02,7-3.02,12.12,0,4.57,2.25,6.65,3.02,11.43.77-4.78,3.02-6.87,3.02-11.43ZM45.07,259.19c-9.94,0-24.09-4.98-34.95-3.02,3.45-2.1,4.98-3.67,7.45-6.74-4.41.43-6.76.8-10.11,2.31,2.66-6.02,3.19-9.4,3.72-15.44-3.07,3.57-4.64,5.74-6.56,10.65C5.32,234.52.35,231.7,0,215.18c-.36,16.51-5.32,19.34-4.61,31.76-1.92-4.91-3.49-7.08-6.56-10.65.53,6.04,1.06,9.42,3.73,15.44-3.36-1.51-5.71-1.87-10.12-2.31,2.47,3.07,4,4.64,7.45,6.74-10.87-1.97-25.02,3.02-34.95,3.02,9.94,0,24.09,4.98,34.95,3.02-3.45,2.1-4.98,3.67-7.45,6.74,4.41-.43,6.76-.8,10.12-2.31-2.66,6.02-3.2,9.4-3.73,15.44,3.07-3.57,4.64-5.74,6.56-10.65-.71,12.42,4.26,15.25,4.61,31.76.36-16.51,5.32-19.34,4.61-31.76,1.93,4.91,3.5,7.08,6.56,10.65-.53-6.04-1.06-9.42-3.72-15.44,3.36,1.51,5.71,1.87,10.11,2.31-2.47-3.07-4-4.64-7.45-6.74,10.87,1.96,25.02-3.02,34.95-3.02Z" style="fill: url(#radial-gradient-2);"/>
          <path d="M18.22,259.19c-4.26-.66-9.39-3.2-14.13-1.22,2.32-1.8,1.14-3.51,2.53-5.2-1.92,1.39-3.51.5-4.99,2.75,1.54-5.31-.53-8.14-1.63-14.12-1.1,5.98-3.17,8.81-1.63,14.12-1.47-2.24-3.07-1.36-4.98-2.75,1.38,1.68.2,3.39,2.53,5.2-4.74-1.98-9.87.56-14.13,1.22,4.26.67,9.39,3.2,14.13,1.22-2.32,1.8-1.14,3.52-2.53,5.2,1.92-1.39,3.51-.5,4.98-2.74-1.54,5.31.53,8.14,1.63,14.12,1.1-5.98,3.17-8.81,1.63-14.12,1.48,2.24,3.07,1.36,4.99,2.74-1.38-1.68-.21-3.39-2.53-5.2,4.74,1.98,9.87-.55,14.13-1.22Z" style="fill: #ffc20e;"/>
        </g>
        <g>
          <path d="M391.76,121.26c2.64-13.83,25.37-16.26,30.29-34.06,3.77,19.12,21.29,19.87,21.54,33.12-3.18-7.8-10.84-5.79-15.88-12.12.85,6.15,4.63,11.89,12.38,15.08-7.67,1.08-15.63-1.83-19.12-9.56-2.56,4.17-2.81,8.45-.67,13.87-4.71-3.63-7.49-9.3-5.65-16.56-7.27,7.27-17.9,3.23-22.88,10.23Z" style="fill: url(#linear-gradient-5);"/>
          <path d="M378.84,68.5c5.52-4.58,10.66-12.46,11.44-22.75,1.08,10.23,3.2,18.13,8.21,23.96,0,0-6.33-3.1-8.62-9.15-2.96,5.25-11.04,7.94-11.04,7.94Z" style="fill: #2c973e;"/>
          <path d="M364.84,119.38c1.22-5.97,6.31-11.18,12.92-13.73-2.71,6.99-1.7,13.8,2.15,19.79-.9-7.77,1.47-13.21,5.79-18.04-1.36,4.83-1.24,9.27,1.08,13.87-.94-8.48,6.17-12.79,15.62-18.44,12.66-7.58,17.28-16.04,19.25-27.23-3.45,6.87-9.9,13.14-27.86,17.29-22.3,5.16-30.39,12.42-28.95,26.49Z" style="fill: #2c973e;"/>
          <path d="M482.48,7.27c29.44,4.02,46.23,20.79,49.15,36.55-3.92-9.25-12.98-15.22-23.6-18.63,10.62,14.01,7.19,31.87,21.12,41.7-10.37-11.04-7.21-24.46-14.9-36.73,12.26,6.9,14.12,16.67,17.02,27.15,4.38,15.84,11.54,20.09,17.22,22.18-11.7.45-28.66-4.53-36.78-20.1-8.61-16.51-1.45-34.41-22.48-43.77,9.6,8.06,14.73,19.52,8.69,34.42,2.26-21.92-20.63-25.51-24.31-40.45-.63,11.53,7.18,21.22,14.55,25.9-10.29-3.37-19.21-8.99-23.42-21.82-6.92,21.39,5.31,38.46,12.9,38.46,2.63,0,4.54-1.67,4.54-4.16,0-6.45-11.64-6.45-14.6-18.86,5.32,10.82,25.55,8.87,25.55,20.76,0,9.74-13.64,14.04-22.36,7.98,6.39,8.34,21.26,8.62,25.55-1.42.66,4.31-1.31,10.76-7.45,13.13-6.99,2.7-13.48-2.48-13.48-2.48,7.64,11.01,20.94,3.67,34.07,3.9,10.87.19,18.11,5.82,21.29,11.18-2.97-1.49-4.64-1.89-7.63-1.95,6.29,3.88,10.85,12.79,9.05,21.47-1.3-6.25-8.57-10.68-22.36-11.63-15.56-1.08-23.81-3.57-29.1-9.3,11.2,4.96,28.94-1.91,40.99,6.03-7.45-8.54-23.93-6.09-35.71-7.98-20.71-3.32-33.32-38.29-31.71-53.63-5.66,23.42,9.46,36.2,12.79,49.13,3.63,14.13-3.37,23.83-9.95,28.8,10.28-15.4-7.42-24.63-4.61-44.36-5.23,19.19,4.44,24.66,4.44,34.6s-8.58,12.99-10.29,25.55c-1.71-12.55-10.29-15.79-10.29-25.55s9.66-15.41,4.44-34.6c2.8,19.73-14.89,28.96-4.61,44.36-6.58-4.98-13.58-14.67-9.95-28.8,3.32-12.93,18.44-25.71,12.79-49.13,1.62,15.35-11,50.31-31.71,53.63-11.78,1.89-28.26-.56-35.72,7.98,12.05-7.94,29.78-1.08,40.99-6.03-5.29,5.73-13.54,8.23-29.1,9.3-13.79.96-21.06,5.38-22.36,11.63-1.8-8.67,2.75-17.59,9.05-21.47-2.99.06-4.66.46-7.63,1.95,3.19-5.36,10.42-10.99,21.29-11.18,13.13-.23,26.42,7.11,34.07-3.9,0,0-6.5,5.18-13.48,2.48-6.15-2.37-8.12-8.82-7.45-13.13,4.29,10.04,19.16,9.76,25.55,1.42-8.72,6.05-22.36,1.75-22.36-7.98,0-11.89,20.23-9.94,25.55-20.76-2.96,12.41-14.6,12.41-14.6,18.86,0,2.49,1.91,4.16,4.54,4.16,7.58,0,19.82-17.06,12.9-38.46-4.2,12.83-13.13,18.45-23.42,21.82,7.37-4.68,15.18-14.37,14.55-25.9-3.68,14.95-26.56,18.53-24.31,40.45-6.03-14.9-.91-26.37,8.7-34.42-21.03,9.37-13.87,27.26-22.48,43.77-8.12,15.57-25.08,20.55-36.78,20.1,5.67-2.09,12.84-6.33,17.22-22.18,2.9-10.48,4.77-20.25,17.02-27.15-7.69,12.27-4.54,25.69-14.9,36.73,13.92-9.83,10.5-27.68,21.11-41.7-10.62,3.41-19.68,9.38-23.6,18.63,2.91-15.76,19.71-32.53,49.15-36.55-30.33-1.29-36.17,15.55-51.46,16.16-9.68.38-18.14-8.39-28.03-13.68,12.11,3.07,31.11,11.33,41.16-2.13,0,0-6.19,5.26-18.28,3.73-12.27-1.56-23.46-9.4-54.12-11.36,30.65-1.96,41.84-9.8,54.12-11.36,12.08-1.54,18.28,3.72,18.28,3.72-10.06-13.46-29.05-5.2-41.16-2.13,9.9-5.29,18.35-14.06,28.03-13.68,15.28.61,21.13,17.45,51.46,16.16-29.44-4.02-46.23-20.79-49.15-36.55,3.92,9.25,12.98,15.22,23.6,18.63-10.62-14.01-7.19-31.87-21.11-41.7,10.37,11.04,7.21,24.46,14.9,36.73-12.26-6.89-14.13-16.67-17.02-27.14-4.38-15.85-11.55-20.09-17.22-22.18,11.7-.45,28.66,4.53,36.78,20.1,8.61,16.51,1.45,34.41,22.48,43.77-9.6-8.05-14.73-19.52-8.7-34.42-2.25,21.92,20.63,25.5,24.31,40.45.63-11.53-7.18-21.22-14.55-25.9,10.29,3.37,19.22,8.99,23.42,21.82,6.93-21.39-5.31-38.46-12.9-38.46-2.63,0-4.54,1.67-4.54,4.16,0,6.45,11.64,6.45,14.6,18.85-5.32-10.82-25.55-8.87-25.55-20.76,0-9.74,13.64-14.04,22.36-7.98-6.39-8.34-21.26-8.62-25.55,1.42-.66-4.31,1.31-10.76,7.45-13.13,6.98-2.7,13.48,2.48,13.48,2.48-7.64-11.01-20.94-3.67-34.07-3.9-10.87-.19-18.11-5.82-21.29-11.18,2.97,1.48,4.64,1.88,7.63,1.95-6.29-3.88-10.85-12.8-9.05-21.47,1.3,6.25,8.57,10.68,22.36,11.63,15.56,1.08,23.81,3.57,29.1,9.3-11.2-4.96-28.94,1.91-40.99-6.03,7.45,8.54,23.93,6.09,35.72,7.98,20.71,3.32,33.32,38.29,31.71,53.63,5.65-23.42-9.46-36.2-12.79-49.13-3.63-14.13,3.37-23.83,9.95-28.8-10.28,15.4,7.42,24.63,4.61,44.36,5.23-19.19-4.44-24.66-4.44-34.6s8.59-12.99,10.29-25.55c1.71,12.55,10.29,15.79,10.29,25.55s-9.66,15.41-4.44,34.6c-2.8-19.73,14.89-28.96,4.61-44.36,6.58,4.97,13.58,14.67,9.95,28.8-3.33,12.93-18.44,25.71-12.79,49.13-1.62-15.35,11-50.31,31.71-53.63,11.78-1.89,28.26.56,35.71-7.98-12.05,7.94-29.79,1.07-40.99,6.03,5.29-5.74,13.54-8.23,29.1-9.3,13.78-.96,21.06-5.38,22.36-11.63,1.8,8.67-2.76,17.59-9.05,21.47,2.99-.07,4.66-.47,7.63-1.95-3.19,5.36-10.42,10.98-21.29,11.18-13.13.23-26.43-7.11-34.07,3.9,0,0,6.5-5.18,13.48-2.48,6.14,2.37,8.12,8.82,7.45,13.13-4.29-10.04-19.16-9.76-25.55-1.42,8.72-6.05,22.36-1.75,22.36,7.98,0,11.89-20.23,9.94-25.55,20.76,2.95-12.4,14.6-12.4,14.6-18.85,0-2.49-1.91-4.16-4.54-4.16-7.59,0-19.82,17.06-12.9,38.46,4.21-12.84,13.13-18.45,23.42-21.82-7.37,4.68-15.18,14.37-14.55,25.9,3.68-14.95,26.56-18.53,24.31-40.45,6.03,14.9.91,26.37-8.69,34.42,21.03-9.36,13.87-27.26,22.48-43.77,8.12-15.57,25.08-20.55,36.78-20.1-5.68,2.09-12.84,6.33-17.22,22.18-2.9,10.48-4.77,20.25-17.02,27.14,7.69-12.26,4.54-25.69,14.9-36.73-13.92,9.83-10.5,27.68-21.12,41.7,10.62-3.41,19.68-9.38,23.6-18.63-2.92,15.76-19.71,32.53-49.15,36.55,30.33,1.29,36.17-15.55,51.45-16.16,9.68-.38,18.14,8.39,28.04,13.68-12.11-3.07-31.11-11.33-41.16,2.13,0,0,6.19-5.26,18.28-3.72,12.27,1.56,23.46,9.4,54.12,11.36-30.65,1.96-41.84,9.8-54.12,11.36-12.08,1.53-18.28-3.73-18.28-3.73,10.06,13.46,29.05,5.2,41.16,2.13-9.9,5.29-18.35,14.06-28.04,13.68-15.28-.61-21.13-17.45-51.45-16.16ZM515.84,0c4.61,1.24,8.63,3.77,14.49,3.77,7.11,0,11.07-2.75,16.74-3.77-5.67-1.02-9.63-3.77-16.74-3.77-5.86,0-9.87,2.53-14.49,3.77ZM443.62-90.31c0,5.12,3.02,8.4,3.02,12.12,0-3.73,3.02-7,3.02-12.12,0-4.57-2.25-6.65-3.02-11.44-.77,4.78-3.02,6.87-3.02,11.44ZM377.44,0c-4.61-1.24-8.63-3.77-14.49-3.77-7.11,0-11.07,2.75-16.74,3.77,5.67,1.02,9.63,3.77,16.74,3.77,5.85,0,9.87-2.53,14.49-3.77ZM449.66,90.31c0-5.12-3.02-8.4-3.02-12.12,0,3.72-3.02,7-3.02,12.12,0,4.57,2.25,6.65,3.02,11.43.77-4.78,3.02-6.87,3.02-11.43ZM491.71,0c-9.94,0-24.09-4.98-34.95-3.02,3.45-2.1,4.98-3.67,7.45-6.74-4.41.43-6.76.8-10.11,2.31,2.66-6.02,3.19-9.4,3.72-15.44-3.07,3.57-4.64,5.74-6.56,10.65.71-12.42-4.26-15.25-4.61-31.76-.36,16.51-5.32,19.34-4.61,31.76-1.92-4.91-3.49-7.08-6.56-10.65.53,6.04,1.06,9.42,3.73,15.44-3.36-1.51-5.71-1.87-10.12-2.31,2.47,3.07,4,4.64,7.45,6.74-10.87-1.97-25.02,3.02-34.95,3.02,9.94,0,24.09,4.98,34.95,3.02-3.45,2.1-4.98,3.67-7.45,6.74,4.41-.43,6.76-.79,10.12-2.3-2.66,6.02-3.2,9.4-3.73,15.44,3.07-3.56,4.64-5.74,6.56-10.65-.71,12.42,4.26,15.25,4.61,31.76.36-16.51,5.32-19.34,4.61-31.76,1.93,4.9,3.5,7.08,6.56,10.65-.53-6.04-1.06-9.42-3.72-15.44,3.36,1.51,5.71,1.87,10.11,2.3-2.47-3.07-4-4.64-7.45-6.74,10.87,1.96,25.02-3.02,34.95-3.02Z" style="fill: url(#radial-gradient-3);"/>
          <path d="M365.11,27.17c-4.69,4.6-6.91,12.19-7.27,21.72-.47,12.53-5.41,17.66-13.33,18.53,11.8-4.58,4.44-17.11,7.94-25.85-6.44,4.79-4.38,20.68-17.63,21.4,9.78-3.2,2.83-16.68,9.29-24.5-7.81.11-11.4-6.12-21.54-3.23,4.71-3.63,9.96-5.92,18.85-5.92-6.25-3.86-9-8.62-11.31-15.35,10.13,10.59,24.85,14.67,35,13.19Z" style="fill: url(#linear-gradient-6);"/>
          <path d="M464.86,0c-4.26-.66-9.39-3.2-14.13-1.22,2.32-1.8,1.14-3.52,2.53-5.2-1.92,1.39-3.51.5-4.99,2.74,1.54-5.31-.53-8.14-1.63-14.12-1.1,5.97-3.17,8.81-1.63,14.12-1.47-2.24-3.07-1.36-4.98-2.74,1.38,1.68.21,3.39,2.53,5.2-4.74-1.98-9.87.55-14.13,1.22,4.26.67,9.39,3.2,14.13,1.22-2.32,1.8-1.14,3.52-2.53,5.2,1.92-1.39,3.51-.5,4.98-2.74-1.54,5.31.53,8.14,1.63,14.12,1.1-5.98,3.17-8.81,1.63-14.12,1.48,2.24,3.07,1.36,4.99,2.74-1.38-1.68-.21-3.39-2.53-5.2,4.74,1.98,9.87-.55,14.13-1.22Z" style="fill: #ffc20e;"/>
        </g>
        <g>
          <path d="M168.44,250.86c2.64-13.83,25.37-16.26,30.29-34.06,3.77,19.12,21.29,19.87,21.54,33.12-3.18-7.8-10.84-5.79-15.88-12.12.85,6.15,4.63,11.89,12.38,15.08-7.67,1.08-15.63-1.83-19.12-9.56-2.56,4.17-2.81,8.45-.67,13.87-4.71-3.63-7.49-9.3-5.65-16.56-7.27,7.27-17.9,3.23-22.88,10.23Z" style="fill: url(#linear-gradient-7);"/>
          <path d="M278.2,250.86c-2.64-13.83-25.37-16.26-30.29-34.06-3.77,19.12-21.29,19.87-21.54,33.12,3.18-7.8,10.84-5.79,15.88-12.12-.85,6.15-4.63,11.89-12.38,15.08,7.67,1.08,15.62-1.83,19.12-9.56,2.56,4.17,2.81,8.45.67,13.87,4.71-3.63,7.49-9.3,5.65-16.56,7.27,7.27,17.9,3.23,22.88,10.23Z" style="fill: url(#linear-gradient-8);"/>
          <path d="M304.85,102.42c4.69-4.6,6.91-12.18,7.27-21.72.47-12.53,5.41-17.66,13.33-18.53-11.8,4.58-4.44,17.12-7.94,25.85,6.44-4.79,4.38-20.68,17.63-21.4-9.78,3.2-2.84,16.68-9.29,24.5,7.81-.11,11.4,6.13,21.54,3.23-4.72,3.64-9.96,5.92-18.85,5.92,6.25,3.86,9,8.63,11.31,15.35-10.13-10.59-24.85-14.66-35-13.19Z" style="fill: url(#linear-gradient-9);"/>
          <path d="M155.52,61.1c5.52,4.58,10.66,12.46,11.44,22.75,1.08-10.23,3.2-18.13,8.21-23.96,0,0-6.33,3.1-8.62,9.15-2.96-5.25-11.04-7.94-11.04-7.94Z" style="fill: #2c973e;"/>
          <path d="M141.52,10.21c1.22,5.97,6.31,11.18,12.92,13.73-2.71-6.99-1.7-13.8,2.15-19.79-.9,7.77,1.47,13.21,5.79,18.04-1.36-4.83-1.24-9.27,1.08-13.87-.94,8.48,6.17,12.79,15.62,18.44,12.66,7.58,17.28,16.04,19.25,27.23-3.45-6.87-9.9-13.14-27.86-17.29-22.3-5.16-30.39-12.42-28.95-26.49Z" style="fill: #2c973e;"/>
          <path d="M141.79,102.42c-4.69-4.6-6.91-12.18-7.27-21.72-.47-12.53-5.41-17.66-13.33-18.53,11.8,4.58,4.44,17.12,7.94,25.85-6.44-4.79-4.38-20.68-17.63-21.4,9.78,3.2,2.83,16.68,9.29,24.5-7.81-.11-11.4,6.13-21.54,3.23,4.71,3.64,9.96,5.92,18.85,5.92-6.25,3.86-9,8.63-11.31,15.35,10.13-10.59,24.85-14.66,35-13.19Z" style="fill: url(#linear-gradient-10);"/>
          <path d="M291.12,61.1c-5.52,4.58-10.66,12.46-11.44,22.75-1.08-10.23-3.2-18.13-8.21-23.96,0,0,6.33,3.1,8.62,9.15,2.96-5.25,11.04-7.94,11.04-7.94Z" style="fill: #2c973e;"/>
          <path d="M305.12,10.21c-1.22,5.97-6.31,11.18-12.92,13.73,2.71-6.99,1.7-13.8-2.15-19.79.9,7.77-1.47,13.21-5.79,18.04,1.36-4.83,1.24-9.27-1.08-13.87.94,8.48-6.17,12.79-15.62,18.44-12.66,7.58-17.28,16.04-19.25,27.23,3.45-6.87,9.9-13.14,27.86-17.29,22.3-5.16,30.39-12.42,28.95-26.49Z" style="fill: #2c973e;"/>
          <path d="M278.2,8.33c-2.64,13.83-25.37,16.26-30.29,34.06-3.77-19.12-21.29-19.87-21.54-33.11,3.18,7.8,10.84,5.79,15.88,12.12-.85-6.15-4.63-11.89-12.38-15.08,7.67-1.08,15.62,1.83,19.12,9.56,2.56-4.17,2.81-8.45.67-13.87,4.71,3.63,7.49,9.3,5.65,16.56,7.27-7.27,17.9-3.23,22.88-10.23Z" style="fill: url(#linear-gradient-11);"/>
          <path d="M155.52,198.09c5.52-4.58,10.66-12.46,11.44-22.75,1.08,10.23,3.2,18.14,8.21,23.96,0,0-6.33-3.1-8.62-9.15-2.96,5.25-11.04,7.94-11.04,7.94Z" style="fill: #2c973e;"/>
          <path d="M141.52,248.97c1.22-5.97,6.31-11.18,12.92-13.73-2.71,6.99-1.7,13.8,2.15,19.79-.9-7.77,1.47-13.21,5.79-18.04-1.36,4.83-1.24,9.27,1.08,13.87-.94-8.48,6.17-12.79,15.62-18.44,12.66-7.58,17.28-16.04,19.25-27.23-3.45,6.87-9.9,13.14-27.86,17.29-22.3,5.16-30.39,12.42-28.95,26.49Z" style="fill: #2c973e;"/>
          <path d="M259.16,136.87c29.44,4.02,46.23,20.79,49.15,36.55-3.92-9.25-12.98-15.22-23.6-18.63,10.62,14.01,7.19,31.87,21.12,41.7-10.37-11.04-7.21-24.46-14.9-36.73,12.26,6.9,14.12,16.67,17.02,27.15,4.38,15.84,11.54,20.09,17.22,22.18-11.7.45-28.66-4.53-36.78-20.1-8.61-16.51-1.45-34.41-22.48-43.77,9.6,8.06,14.73,19.52,8.69,34.42,2.26-21.92-20.63-25.5-24.31-40.45-.63,11.53,7.18,21.22,14.55,25.9-10.29-3.37-19.21-8.99-23.42-21.82-6.92,21.39,5.31,38.46,12.9,38.46,2.63,0,4.54-1.67,4.54-4.16,0-6.45-11.64-6.45-14.6-18.85,5.32,10.82,25.55,8.87,25.55,20.76,0,9.74-13.64,14.04-22.36,7.98,6.39,8.34,21.26,8.62,25.55-1.42.66,4.31-1.31,10.76-7.45,13.13-6.99,2.7-13.48-2.48-13.48-2.48,7.64,11.01,20.94,3.67,34.07,3.9,10.87.19,18.11,5.82,21.29,11.18-2.97-1.49-4.64-1.89-7.63-1.95,6.29,3.88,10.85,12.8,9.05,21.47-1.3-6.25-8.57-10.68-22.36-11.63-15.56-1.08-23.81-3.57-29.1-9.3,11.2,4.96,28.94-1.91,40.99,6.03-7.45-8.54-23.93-6.09-35.71-7.98-20.71-3.32-33.32-38.29-31.71-53.63-5.66,23.42,9.46,36.2,12.79,49.13,3.63,14.13-3.37,23.83-9.95,28.8,10.28-15.4-7.42-24.63-4.61-44.36-5.23,19.19,4.44,24.66,4.44,34.6s-8.58,12.99-10.29,25.55c-1.71-12.55-10.29-15.79-10.29-25.55s9.66-15.41,4.44-34.6c2.8,19.73-14.89,28.96-4.61,44.36-6.58-4.98-13.58-14.67-9.95-28.8,3.32-12.93,18.44-25.71,12.79-49.13,1.62,15.35-11,50.31-31.71,53.63-11.78,1.89-28.26-.56-35.72,7.98,12.05-7.94,29.78-1.08,40.99-6.03-5.29,5.73-13.54,8.23-29.1,9.3-13.79.95-21.06,5.38-22.36,11.63-1.8-8.67,2.75-17.59,9.05-21.47-2.99.07-4.66.46-7.63,1.95,3.19-5.36,10.42-10.99,21.29-11.18,13.13-.23,26.42,7.11,34.07-3.9,0,0-6.5,5.18-13.48,2.48-6.15-2.37-8.12-8.82-7.45-13.13,4.29,10.04,19.16,9.76,25.55,1.42-8.72,6.05-22.36,1.75-22.36-7.98,0-11.89,20.23-9.94,25.55-20.76-2.96,12.41-14.6,12.41-14.6,18.85,0,2.49,1.91,4.16,4.54,4.16,7.58,0,19.82-17.06,12.9-38.46-4.2,12.83-13.13,18.45-23.42,21.82,7.37-4.68,15.18-14.37,14.55-25.9-3.68,14.95-26.56,18.53-24.31,40.45-6.03-14.9-.91-26.37,8.7-34.42-21.03,9.36-13.87,27.26-22.48,43.77-8.12,15.57-25.08,20.55-36.78,20.1,5.67-2.09,12.84-6.33,17.22-22.18,2.9-10.48,4.77-20.25,17.02-27.15-7.69,12.27-4.54,25.69-14.9,36.73,13.92-9.83,10.5-27.68,21.11-41.7-10.62,3.41-19.68,9.38-23.6,18.63,2.91-15.76,19.71-32.53,49.15-36.55-30.33-1.29-36.17,15.55-51.46,16.16-9.68.38-18.14-8.39-28.03-13.68,12.11,3.07,31.11,11.33,41.16-2.13,0,0-6.19,5.26-18.28,3.73-12.27-1.56-23.46-9.4-54.12-11.36,30.65-1.96,41.84-9.8,54.12-11.36,12.08-1.54,18.28,3.72,18.28,3.72-10.06-13.46-29.05-5.2-41.16-2.13,9.9-5.29,18.35-14.06,28.03-13.68,15.28.61,21.13,17.45,51.46,16.16-29.44-4.02-46.23-20.79-49.15-36.55,3.92,9.25,12.98,15.22,23.6,18.63-10.62-14.01-7.19-31.87-21.11-41.7,10.37,11.04,7.21,24.46,14.9,36.73-12.26-6.89-14.13-16.67-17.02-27.15-4.38-15.85-11.55-20.09-17.22-22.18,11.7-.45,28.66,4.53,36.78,20.1,8.61,16.51,1.45,34.41,22.48,43.77-9.6-8.06-14.73-19.52-8.7-34.42-2.25,21.92,20.63,25.5,24.31,40.45.63-11.53-7.18-21.22-14.55-25.9,10.29,3.37,19.22,8.99,23.42,21.82,6.93-21.39-5.31-38.46-12.9-38.46-2.63,0-4.54,1.67-4.54,4.16,0,6.45,11.64,6.45,14.6,18.85-5.32-10.82-25.55-8.87-25.55-20.76,0-9.74,13.64-14.04,22.36-7.99-6.39-8.34-21.26-8.62-25.55,1.42-.66-4.31,1.31-10.76,7.45-13.13,6.98-2.7,13.48,2.48,13.48,2.48-7.64-11.01-20.94-3.67-34.07-3.9-10.87-.19-18.11-5.82-21.29-11.18,2.97,1.48,4.64,1.88,7.63,1.95-6.29-3.88-10.85-12.8-9.05-21.47,1.3,6.25,8.57,10.68,22.36,11.63,15.56,1.08,23.81,3.57,29.1,9.3-11.2-4.96-28.94,1.91-40.99-6.03,7.45,8.54,23.93,6.09,35.72,7.98,20.71,3.32,33.32,38.29,31.71,53.63,5.65-23.42-9.46-36.2-12.79-49.13-3.63-14.13,3.37-23.83,9.95-28.8-10.28,15.4,7.42,24.63,4.61,44.36,5.23-19.19-4.44-24.66-4.44-34.6s8.59-13,10.29-25.55c1.71,12.55,10.29,15.79,10.29,25.55s-9.66,15.41-4.44,34.6c-2.8-19.73,14.89-28.96,4.61-44.36,6.58,4.98,13.58,14.67,9.95,28.8-3.33,12.93-18.44,25.71-12.79,49.13-1.62-15.35,11-50.31,31.71-53.63,11.78-1.89,28.26.56,35.71-7.98-12.05,7.94-29.79,1.07-40.99,6.03,5.29-5.74,13.54-8.23,29.1-9.3,13.78-.96,21.06-5.38,22.36-11.63,1.8,8.67-2.76,17.59-9.05,21.47,2.99-.07,4.66-.47,7.63-1.95-3.19,5.36-10.42,10.99-21.29,11.18-13.13.23-26.43-7.11-34.07,3.9,0,0,6.5-5.18,13.48-2.48,6.14,2.37,8.12,8.82,7.45,13.13-4.29-10.04-19.16-9.76-25.55-1.42,8.72-6.05,22.36-1.75,22.36,7.99,0,11.89-20.23,9.94-25.55,20.76,2.95-12.4,14.6-12.4,14.6-18.85,0-2.49-1.91-4.16-4.54-4.16-7.59,0-19.82,17.06-12.9,38.46,4.21-12.83,13.13-18.45,23.42-21.82-7.37,4.68-15.18,14.37-14.55,25.9,3.68-14.95,26.56-18.53,24.31-40.45,6.03,14.9.91,26.37-8.69,34.42,21.03-9.36,13.87-27.26,22.48-43.77,8.12-15.57,25.08-20.55,36.78-20.1-5.68,2.09-12.84,6.33-17.22,22.18-2.9,10.48-4.77,20.25-17.02,27.15,7.69-12.26,4.54-25.69,14.9-36.73-13.92,9.83-10.5,27.68-21.12,41.7,10.62-3.41,19.68-9.38,23.6-18.63-2.92,15.76-19.71,32.53-49.15,36.55,30.33,1.29,36.17-15.55,51.45-16.16,9.68-.38,18.14,8.39,28.04,13.68-12.11-3.07-31.11-11.33-41.16,2.13,0,0,6.19-5.26,18.28-3.72,12.27,1.56,23.46,9.4,54.12,11.36-30.65,1.96-41.84,9.8-54.12,11.36-12.08,1.53-18.28-3.73-18.28-3.73,10.06,13.46,29.05,5.2,41.16,2.13-9.9,5.29-18.35,14.06-28.04,13.68-15.28-.61-21.13-17.45-51.45-16.16ZM292.52,129.59c4.61,1.24,8.63,3.77,14.49,3.77,7.11,0,11.07-2.75,16.74-3.77-5.67-1.02-9.63-3.77-16.74-3.77-5.86,0-9.87,2.53-14.49,3.77ZM220.3,39.28c0,5.12,3.02,8.4,3.02,12.12,0-3.73,3.02-7,3.02-12.12,0-4.57-2.25-6.65-3.02-11.43-.77,4.78-3.02,6.87-3.02,11.43ZM154.12,129.59c-4.61-1.24-8.63-3.77-14.49-3.77-7.11,0-11.07,2.75-16.74,3.77,5.67,1.02,9.63,3.77,16.74,3.77,5.85,0,9.87-2.53,14.49-3.77ZM226.34,219.9c0-5.12-3.02-8.4-3.02-12.12,0,3.72-3.02,7-3.02,12.12,0,4.57,2.25,6.65,3.02,11.43.77-4.78,3.02-6.87,3.02-11.43ZM268.39,129.59c-9.94,0-24.09-4.98-34.95-3.02,3.45-2.1,4.98-3.67,7.45-6.74-4.41.43-6.76.8-10.11,2.31,2.66-6.02,3.19-9.4,3.72-15.44-3.07,3.57-4.64,5.74-6.56,10.65.71-12.42-4.26-15.25-4.61-31.76-.36,16.51-5.32,19.34-4.61,31.76-1.92-4.91-3.49-7.08-6.56-10.65.53,6.04,1.06,9.42,3.73,15.44-3.36-1.51-5.71-1.87-10.12-2.31,2.47,3.07,4,4.64,7.45,6.74-10.87-1.97-25.02,3.02-34.95,3.02,9.94,0,24.09,4.98,34.95,3.02-3.45,2.1-4.98,3.67-7.45,6.74,4.41-.43,6.76-.8,10.12-2.31-2.66,6.02-3.2,9.4-3.73,15.44,3.07-3.57,4.64-5.74,6.56-10.65-.71,12.42,4.26,15.25,4.61,31.76.36-16.51,5.32-19.34,4.61-31.76,1.93,4.91,3.5,7.08,6.56,10.65-.53-6.04-1.06-9.42-3.72-15.44,3.36,1.51,5.71,1.87,10.11,2.31-2.47-3.07-4-4.64-7.45-6.74,10.87,1.96,25.02-3.02,34.95-3.02Z" style="fill: url(#radial-gradient-4);"/>
          <path d="M291.12,198.09c-5.52-4.58-10.66-12.46-11.44-22.75-1.08,10.23-3.2,18.14-8.21,23.96,0,0,6.33-3.1,8.62-9.15,2.96,5.25,11.04,7.94,11.04,7.94Z" style="fill: #2c973e;"/>
          <path d="M305.12,248.97c-1.22-5.97-6.31-11.18-12.92-13.73,2.71,6.99,1.7,13.8-2.15,19.79.9-7.77-1.47-13.21-5.79-18.04,1.36,4.83,1.24,9.27-1.08,13.87.94-8.48-6.17-12.79-15.62-18.44-12.66-7.58-17.28-16.04-19.25-27.23,3.45,6.87,9.9,13.14,27.86,17.29,22.3,5.16,30.39,12.42,28.95,26.49Z" style="fill: #2c973e;"/>
          <path d="M304.85,156.76c4.69,4.6,6.91,12.19,7.27,21.72.47,12.53,5.41,17.66,13.33,18.53-11.8-4.58-4.44-17.11-7.94-25.85,6.44,4.79,4.38,20.68,17.63,21.4-9.78-3.2-2.84-16.67-9.29-24.5,7.81.11,11.4-6.12,21.54-3.23-4.72-3.63-9.96-5.92-18.85-5.92,6.25-3.86,9-8.62,11.31-15.35-10.13,10.59-24.85,14.67-35,13.19Z" style="fill: url(#linear-gradient-12);"/>
          <path d="M141.79,156.76c-4.69,4.6-6.91,12.19-7.27,21.72-.47,12.53-5.41,17.66-13.33,18.53,11.8-4.58,4.44-17.11,7.94-25.85-6.44,4.79-4.38,20.68-17.63,21.4,9.78-3.2,2.83-16.67,9.29-24.5-7.81.11-11.4-6.12-21.54-3.23,4.71-3.63,9.96-5.92,18.85-5.92-6.25-3.86-9-8.62-11.31-15.35,10.13,10.59,24.85,14.67,35,13.19Z" style="fill: url(#linear-gradient-13);"/>
          <path d="M168.44,8.33c2.64,13.83,25.37,16.26,30.29,34.06,3.77-19.12,21.29-19.87,21.54-33.11-3.18,7.8-10.84,5.79-15.88,12.12.85-6.15,4.63-11.89,12.38-15.08-7.67-1.08-15.63,1.83-19.12,9.56-2.56-4.17-2.81-8.45-.67-13.87-4.71,3.63-7.49,9.3-5.65,16.56-7.27-7.27-17.9-3.23-22.88-10.23Z" style="fill: url(#linear-gradient-14);"/>
          <path d="M241.54,129.59c-4.26-.66-9.39-3.2-14.13-1.22,2.32-1.8,1.14-3.51,2.53-5.2-1.92,1.39-3.51.5-4.99,2.75,1.54-5.31-.53-8.14-1.63-14.12-1.1,5.98-3.17,8.81-1.63,14.12-1.47-2.24-3.07-1.36-4.98-2.75,1.38,1.68.2,3.39,2.53,5.2-4.74-1.98-9.87.56-14.13,1.22,4.26.67,9.39,3.2,14.13,1.22-2.32,1.8-1.14,3.52-2.53,5.2,1.92-1.39,3.51-.5,4.98-2.74-1.54,5.31.53,8.14,1.63,14.12,1.1-5.98,3.17-8.81,1.63-14.12,1.48,2.24,3.07,1.36,4.99,2.74-1.38-1.68-.21-3.39-2.53-5.2,4.74,1.98,9.87-.55,14.13-1.22Z" style="fill: #ffc20e;"/>
        </g>
        <g>
          <path d="M54.88,121.26c-2.64-13.83-25.37-16.26-30.29-34.06-3.77,19.12-21.29,19.87-21.54,33.12,3.18-7.8,10.84-5.79,15.88-12.12-.85,6.15-4.63,11.89-12.38,15.08,7.67,1.08,15.62-1.83,19.12-9.56,2.56,4.17,2.81,8.45.67,13.87,4.71-3.63,7.49-9.3,5.65-16.56,7.27,7.27,17.9,3.23,22.88,10.23Z" style="fill: url(#linear-gradient-15);"/>
          <path d="M35.84,7.27c29.44,4.02,46.23,20.79,49.15,36.55-3.92-9.25-12.98-15.22-23.6-18.63,10.62,14.01,7.19,31.87,21.12,41.7-10.37-11.04-7.21-24.46-14.9-36.73,12.26,6.9,14.12,16.67,17.02,27.15,4.38,15.84,11.54,20.09,17.22,22.18-11.7.45-28.66-4.53-36.78-20.1-8.61-16.51-1.45-34.41-22.48-43.77,9.6,8.06,14.73,19.52,8.69,34.42,2.26-21.92-20.63-25.51-24.31-40.45-.63,11.53,7.18,21.22,14.55,25.9-10.29-3.37-19.21-8.99-23.42-21.82-6.92,21.39,5.31,38.46,12.9,38.46,2.63,0,4.54-1.67,4.54-4.16,0-6.45-11.64-6.45-14.6-18.86,5.32,10.82,25.55,8.87,25.55,20.76,0,9.74-13.64,14.04-22.36,7.98,6.39,8.34,21.26,8.62,25.55-1.42.66,4.31-1.31,10.76-7.45,13.13-6.99,2.7-13.48-2.48-13.48-2.48,7.64,11.01,20.94,3.67,34.07,3.9,10.87.19,18.11,5.82,21.29,11.18-2.97-1.49-4.64-1.89-7.63-1.95,6.29,3.88,10.85,12.79,9.05,21.47-1.3-6.25-8.57-10.68-22.36-11.63-15.56-1.08-23.81-3.57-29.1-9.3,11.2,4.96,28.94-1.91,40.99,6.03-7.45-8.54-23.93-6.09-35.71-7.98C18.63,75.46,6.01,40.5,7.63,25.15c-5.66,23.42,9.46,36.2,12.79,49.13,3.63,14.13-3.37,23.83-9.95,28.8,10.28-15.4-7.42-24.63-4.61-44.36-5.23,19.19,4.44,24.66,4.44,34.6S1.71,106.32,0,118.88c-1.7-12.55-10.29-15.79-10.29-25.55S-.63,77.92-5.86,58.73c2.8,19.73-14.89,28.96-4.61,44.36-6.58-4.98-13.58-14.67-9.95-28.8,3.32-12.93,18.44-25.71,12.79-49.13,1.62,15.35-11,50.31-31.71,53.63-11.78,1.89-28.26-.56-35.72,7.98,12.05-7.94,29.78-1.08,40.99-6.03-5.29,5.73-13.54,8.23-29.1,9.3-13.79.96-21.06,5.38-22.36,11.63-1.8-8.67,2.75-17.59,9.05-21.47-2.99.06-4.66.46-7.63,1.95,3.19-5.36,10.42-10.99,21.29-11.18,13.13-.23,26.42,7.11,34.07-3.9,0,0-6.5,5.18-13.48,2.48-6.15-2.37-8.12-8.82-7.45-13.13,4.29,10.04,19.16,9.76,25.55,1.42-8.72,6.05-22.36,1.75-22.36-7.98,0-11.89,20.23-9.94,25.55-20.76-2.96,12.41-14.6,12.41-14.6,18.86,0,2.49,1.91,4.16,4.54,4.16,7.58,0,19.82-17.06,12.9-38.46-4.2,12.83-13.13,18.45-23.42,21.82,7.37-4.68,15.18-14.37,14.55-25.9-3.68,14.95-26.56,18.53-24.31,40.45-6.03-14.9-.91-26.37,8.7-34.42-21.03,9.37-13.87,27.26-22.48,43.77-8.12,15.57-25.08,20.55-36.78,20.1,5.67-2.09,12.84-6.33,17.22-22.18,2.9-10.48,4.77-20.25,17.02-27.15-7.69,12.27-4.54,25.69-14.9,36.73,13.92-9.83,10.5-27.68,21.11-41.7-10.62,3.41-19.68,9.38-23.6,18.63,2.91-15.76,19.71-32.53,49.15-36.55-30.33-1.29-36.17,15.55-51.46,16.16-9.68.38-18.14-8.39-28.03-13.68,12.11,3.07,31.11,11.33,41.16-2.13,0,0-6.19,5.26-18.28,3.73-12.27-1.56-23.46-9.4-54.12-11.36,30.65-1.96,41.84-9.8,54.12-11.36,12.08-1.54,18.28,3.72,18.28,3.72-10.06-13.46-29.05-5.2-41.16-2.13,9.9-5.29,18.35-14.06,28.03-13.68,15.28.61,21.13,17.45,51.46,16.16-29.44-4.02-46.23-20.79-49.15-36.55,3.92,9.25,12.98,15.22,23.6,18.63-10.62-14.01-7.19-31.87-21.11-41.7,10.37,11.04,7.21,24.46,14.9,36.73-12.26-6.89-14.13-16.67-17.02-27.14-4.38-15.85-11.55-20.09-17.22-22.18,11.7-.45,28.66,4.53,36.78,20.1,8.61,16.51,1.45,34.41,22.48,43.77-9.6-8.05-14.73-19.52-8.7-34.42-2.25,21.92,20.63,25.5,24.31,40.45.63-11.53-7.18-21.22-14.55-25.9,10.29,3.37,19.22,8.99,23.42,21.82,6.93-21.39-5.31-38.46-12.9-38.46-2.63,0-4.54,1.67-4.54,4.16,0,6.45,11.64,6.45,14.6,18.85-5.32-10.82-25.55-8.87-25.55-20.76,0-9.74,13.64-14.04,22.36-7.98-6.39-8.34-21.26-8.62-25.55,1.42-.66-4.31,1.31-10.76,7.45-13.13,6.98-2.7,13.48,2.48,13.48,2.48-7.64-11.01-20.94-3.67-34.07-3.9-10.87-.19-18.11-5.82-21.29-11.18,2.97,1.48,4.64,1.88,7.63,1.95-6.29-3.88-10.85-12.8-9.05-21.47,1.3,6.25,8.57,10.68,22.36,11.63,15.56,1.08,23.81,3.57,29.1,9.3-11.2-4.96-28.94,1.91-40.99-6.03,7.45,8.54,23.93,6.09,35.72,7.98C-18.63-75.46-6.01-40.5-7.63-25.15c5.65-23.42-9.46-36.2-12.79-49.13-3.63-14.13,3.37-23.83,9.95-28.8-10.28,15.4,7.42,24.63,4.61,44.36,5.23-19.19-4.44-24.66-4.44-34.6S-1.71-106.32,0-118.88c1.71,12.55,10.29,15.79,10.29,25.55S.63-77.92,5.85-58.73c-2.8-19.73,14.89-28.96,4.61-44.36,6.58,4.97,13.58,14.67,9.95,28.8-3.33,12.93-18.44,25.71-12.79,49.13-1.62-15.35,11-50.31,31.71-53.63,11.78-1.89,28.26.56,35.71-7.98-12.05,7.94-29.79,1.07-40.99,6.03,5.29-5.74,13.54-8.23,29.1-9.3,13.78-.96,21.06-5.38,22.36-11.63,1.8,8.67-2.76,17.59-9.05,21.47,2.99-.07,4.66-.47,7.63-1.95-3.19,5.36-10.42,10.98-21.29,11.18-13.13.23-26.43-7.11-34.07,3.9,0,0,6.5-5.18,13.48-2.48,6.14,2.37,8.12,8.82,7.45,13.13-4.29-10.04-19.16-9.76-25.55-1.42,8.72-6.05,22.36-1.75,22.36,7.98,0,11.89-20.23,9.94-25.55,20.76,2.96-12.4,14.6-12.4,14.6-18.85,0-2.49-1.91-4.16-4.54-4.16-7.59,0-19.82,17.06-12.9,38.46,4.21-12.84,13.13-18.45,23.42-21.82-7.37,4.68-15.18,14.37-14.55,25.9,3.68-14.95,26.56-18.53,24.31-40.45,6.03,14.9.91,26.37-8.69,34.42,21.03-9.36,13.87-27.26,22.48-43.77,8.12-15.57,25.08-20.55,36.78-20.1-5.68,2.09-12.84,6.33-17.22,22.18-2.9,10.48-4.77,20.25-17.02,27.14,7.69-12.26,4.54-25.69,14.9-36.73-13.92,9.83-10.5,27.68-21.12,41.7,10.62-3.41,19.68-9.38,23.6-18.63-2.92,15.76-19.71,32.53-49.15,36.55,30.33,1.29,36.17-15.55,51.45-16.16,9.68-.38,18.14,8.39,28.04,13.68-12.11-3.07-31.11-11.33-41.16,2.13,0,0,6.19-5.26,18.28-3.72,12.27,1.56,23.46,9.4,54.12,11.36-30.65,1.96-41.84,9.8-54.12,11.36-12.08,1.53-18.28-3.73-18.28-3.73,10.06,13.46,29.05,5.2,41.16,2.13-9.9,5.29-18.35,14.06-28.04,13.68-15.28-.61-21.13-17.45-51.45-16.16ZM69.2,0c4.61,1.24,8.63,3.77,14.49,3.77,7.11,0,11.07-2.75,16.74-3.77-5.67-1.02-9.63-3.77-16.74-3.77-5.86,0-9.87,2.53-14.49,3.77ZM-3.02-90.31C-3.02-85.19,0-81.91,0-78.19c0-3.73,3.02-7,3.02-12.12,0-4.57-2.25-6.65-3.02-11.44-.77,4.78-3.02,6.87-3.02,11.44ZM-69.2,0c-4.61-1.24-8.63-3.77-14.49-3.77-7.11,0-11.07,2.75-16.74,3.77,5.67,1.02,9.63,3.77,16.74,3.77,5.85,0,9.88-2.53,14.49-3.77ZM3.02,90.31C3.02,85.19,0,81.91,0,78.19c0,3.72-3.02,7-3.02,12.12,0,4.57,2.25,6.65,3.02,11.43.77-4.78,3.02-6.87,3.02-11.43ZM45.07,0c-9.94,0-24.09-4.98-34.95-3.02,3.45-2.1,4.98-3.67,7.45-6.74-4.41.43-6.76.8-10.11,2.31,2.66-6.02,3.19-9.4,3.72-15.44-3.07,3.57-4.64,5.74-6.56,10.65C5.32-24.66.35-27.49,0-44-.36-27.49-5.32-24.66-4.61-12.24c-1.92-4.91-3.49-7.08-6.56-10.65.53,6.04,1.06,9.42,3.73,15.44-3.36-1.51-5.71-1.87-10.12-2.31,2.47,3.07,4,4.64,7.45,6.74-10.87-1.97-25.02,3.02-34.95,3.02,9.94,0,24.09,4.98,34.95,3.02-3.45,2.1-4.98,3.67-7.45,6.74,4.41-.43,6.76-.79,10.12-2.3-2.66,6.02-3.2,9.4-3.73,15.44,3.07-3.56,4.64-5.74,6.56-10.65C-5.32,24.66-.36,27.49,0,44,.35,27.49,5.32,24.66,4.61,12.24c1.93,4.9,3.5,7.08,6.56,10.65-.53-6.04-1.06-9.42-3.72-15.44,3.36,1.51,5.71,1.87,10.11,2.3-2.47-3.07-4-4.64-7.45-6.74,10.87,1.96,25.02-3.02,34.95-3.02Z" style="fill: url(#radial-gradient-5);"/>
          <path d="M67.8,68.5c-5.52-4.58-10.66-12.46-11.44-22.75-1.08,10.23-3.2,18.13-8.21,23.96,0,0,6.33-3.1,8.62-9.15,2.96,5.25,11.04,7.94,11.04,7.94Z" style="fill: #2c973e;"/>
          <path d="M81.8,119.38c-1.22-5.97-6.31-11.18-12.92-13.73,2.71,6.99,1.7,13.8-2.15,19.79.9-7.77-1.47-13.21-5.79-18.04,1.36,4.83,1.24,9.27-1.08,13.87.94-8.48-6.17-12.79-15.62-18.44-12.66-7.58-17.28-16.04-19.25-27.23,3.45,6.87,9.9,13.14,27.86,17.29,22.3,5.16,30.39,12.42,28.95,26.49Z" style="fill: #2c973e;"/>
          <path d="M81.53,27.17c4.69,4.6,6.91,12.19,7.27,21.72.47,12.53,5.41,17.66,13.33,18.53-11.8-4.58-4.44-17.11-7.94-25.85,6.44,4.79,4.38,20.68,17.63,21.4-9.78-3.2-2.84-16.68-9.29-24.5,7.81.11,11.4-6.12,21.54-3.23-4.72-3.63-9.96-5.92-18.85-5.92,6.25-3.86,9-8.62,11.31-15.35-10.13,10.59-24.85,14.67-35,13.19Z" style="fill: url(#linear-gradient-16);"/>
          <path d="M18.22,0c-4.26-.66-9.39-3.2-14.13-1.22,2.32-1.8,1.14-3.52,2.53-5.2-1.92,1.39-3.51.5-4.99,2.74C3.17-8.98,1.1-11.81,0-17.79-1.1-11.81-3.17-8.98-1.63-3.67c-1.47-2.24-3.07-1.36-4.98-2.74,1.38,1.68.2,3.39,2.53,5.2-4.74-1.98-9.87.55-14.13,1.22,4.26.67,9.39,3.2,14.13,1.22-2.32,1.8-1.14,3.52-2.53,5.2,1.92-1.39,3.51-.5,4.98-2.74C-3.17,8.98-1.1,11.81,0,17.79,1.1,11.81,3.17,8.98,1.63,3.67c1.48,2.24,3.07,1.36,4.99,2.74-1.38-1.68-.21-3.39-2.53-5.2,4.74,1.98,9.87-.55,14.13-1.22Z" style="fill: #ffc20e;"/>
        </g>
      </g>
    </pattern>
    <linearGradient id="Orange_Yellow" data-name="Orange, Yellow" x1="947.23" y1="606.69" x2="1660.31" y2="606.69" gradientUnits="userSpaceOnUse">
      <stop offset="0" stop-color="#fff33b"/>
      <stop offset=".04" stop-color="#fee62d"/>
      <stop offset=".12" stop-color="#fdd51b"/>
      <stop offset=".2" stop-color="#fdca0f"/>
      <stop offset=".28" stop-color="#fdc70c"/>
      <stop offset=".67" stop-color="#f3903f"/>
      <stop offset=".89" stop-color="#ed683c"/>
      <stop offset="1" stop-color="#e93e3a"/>
    </linearGradient>
    <linearGradient id="Orange_Yellow-2" data-name="Orange, Yellow" y1="940.08" y2="940.08" xlink:href="#Orange_Yellow"/>
  </defs>
  <path d="M1138.47,556.78c2.25,6.97,4.01,15.42,5.29,25.37,1.76,14.36,2.3,31.34,1.63,50.96-.61,14.41-2.06,31.13-4.36,50.15l-1.51,12.43c-.58,4.01-1.3,8.14-2.17,12.41-1.61,7.5-3.65,15.49-6.12,23.96-8.25,27.26-20.41,57.32-36.49,90.18-15.9,32.02-31.8,59.6-47.7,82.73-4.69,6.69-9.42,12.99-14.18,18.9-3.39,4.04-6.04,7-7.94,8.86-1.75,1.73-3.34,3.04-4.74,3.91-1.17.72-2.22,1.22-3.13,1.5-1.66.52-3.21.46-4.66-.16-.95-.32-1.78-.91-2.49-1.77-.59-.69-1.06-1.5-1.43-2.42-.49-1.1-.87-2.48-1.13-4.13-.23-1.96-.25-4.35-.04-7.19.1-1.62.31-3.81.62-6.56.31-2.76.51-4.74.61-5.96.78-7.25,1.31-15.49,1.59-24.74.85-26.35.25-59.91-1.82-100.69-1.87-35.62-4.27-69.29-7.18-101.02-2.08-21.79-3.82-38.6-5.23-50.42-1.08-9.39-2.2-17.72-3.36-24.99-.16-1.17-.41-2.82-.77-4.95-1.76,4.23-4.39,8.78-7.87,13.65-2.6,3.6-5.71,7.49-9.34,11.68-3.15,3.5-6.56,7.05-10.21,10.65-4.88,4.93-12.06,11.83-21.55,20.69-9.49,8.86-16.3,15.39-20.46,19.58-7.23,7.18-13.61,14.45-19.13,21.8-3.23,4.42-5.82,8.46-7.79,12.13-2.62,4.8-4.14,9.14-4.56,13.02-.07.91-.07,2.01.03,3.29.06,1.99.13,3.17.21,3.56.28,1.75.47,2.91.59,3.48.42,1.62.75,2.76.98,3.41,1.37,4.44,3.53,8.67,6.49,12.7,2.83,3.86,6.13,7.1,9.9,9.72,3.77,2.63,7.72,4.35,11.86,5.15,1.1.19,1.96.75,2.6,1.68.63.93.9,2,.8,3.22-.05,1.01-.47,1.86-1.25,2.56-.78.7-1.67.99-2.66.88-5.16-.61-10.24-2.59-15.26-5.93-4.62-3.11-8.67-7.09-12.14-11.92-3.35-4.65-5.9-9.91-7.66-15.77-.37-.93-.76-2.35-1.16-4.28-.16-.77-.38-2.23-.65-4.37-.14-.67-.23-2.15-.27-4.45-.07-1.59,0-3.15.21-4.69.82-4.95,2.91-10.15,6.27-15.59,2.39-3.76,5.47-7.79,9.25-12.11,2.64-3,9.52-9.97,20.65-20.89,2.93-2.86,7.32-7.07,13.17-12.64,5.85-5.57,11.04-10.58,15.58-15.05,4.54-4.47,8.8-8.78,12.78-12.94,7.84-8.49,13.89-16.05,18.16-22.66,2.93-4.56,5.08-8.82,6.46-12.78,1.77-5.04,2.26-9.48,1.45-13.32-.12-.98-.03-1.84.25-2.6-.25-.75-.33-1.48-.26-2.2.07-.71.29-1.35.66-1.92.37-.57.84-.96,1.41-1.17.96-.48,1.93-.49,2.9-.03.98.46,1.72,1.25,2.21,2.35.7,1.66,1.39,3.93,2.08,6.8.42,1.62.92,3.77,1.48,6.46.72,3.86,1.47,8.11,2.26,12.76,1.18,7.37,2.38,15.84,3.58,25.4,2.18,16.77,4.02,33.66,5.54,50.66,3.37,36.44,5.79,70.25,7.27,101.45,1.79,41.13,2.19,74.99,1.21,101.56-.35,9.76-.92,18.21-1.72,25.36-.18,1.23-.38,2.6-.6,4.09-.22,1.49-.43,3.01-.64,4.54-.21,1.54-.39,2.77-.55,3.7-.21,1.94-.32,3.76-.32,5.46.07.78.17,1.47.29,2.04l.19.26-.13.02.95.12c.59-.11,1.25-.34,1.98-.68,1.19-.63,2.66-1.61,4.41-2.94,2.73-2.12,5.42-4.69,8.05-7.69,4.03-4.37,8.8-10.43,14.33-18.18,8.02-11.43,16.45-24.73,25.28-39.92,8.1-14.04,15.58-28.07,22.45-42.07,7.41-14.81,14.06-29.43,19.96-43.85,6.72-16.38,12.15-31.61,16.27-45.69,2.49-8.37,4.45-16.29,5.89-23.76.91-4.07,1.62-8.1,2.11-12.1l1.51-12.43c2.33-18.83,3.72-35.44,4.16-49.82.73-19.33.2-36.02-1.58-50.07-1.31-9.64-3.05-17.8-5.24-24.48-.27-.85-.61-1.88-1.04-3.1-.24,2.65-.31,6.11-.22,10.38-.05.61-.25,1.12-.6,1.54-.35.42-.8.6-1.34.56-.54-.05-.99-.28-1.34-.72-.35-.43-.55-.94-.59-1.54,0-5.49.15-9.82.47-12.98.05-.61.15-1.18.31-1.71.16-.93.37-1.62.63-2.07.28-.35.57-.66.87-.92.62-.42,1.27-.44,1.97-.08.42.32.88.83,1.38,1.54.25.35.55.94.9,1.78,1.09,3.09,1.81,5.1,2.18,6.03Z" style="stroke: #231f20; stroke-miterlimit: 10;"/>
  <g id="SVGRepo_iconCarrier" data-name="SVGRepo iconCarrier" style="opacity: .67;">
    <path d="M1617.01,899.49h-332.38c-12.36,0-22.42-7.91-22.42-17.63v-176.11c0-9.72,10.06-17.63,22.42-17.63h332.38c12.36,0,22.42,7.91,22.42,17.63v176.11c0,9.72-10.06,17.63-22.42,17.63h0Z" style="fill: #a7b8c6;"/>
    <path d="M1618.54,680.95c0-9.72-10.06-17.63-22.42-17.63h-332.38c-12.36,0-22.42,7.91-22.42,17.63v115.92h377.23v-115.92h0Z" style="fill: #938d7b;"/>
    <path d="M1263.74,874.66h332.38c12.36,0,22.42-7.91,22.42-17.63v-89.03h-377.27v89.03c0,9.72,10.06,17.63,22.47,17.63Z" style="fill: #b69a5d;"/>
    <path d="M1596.12,879.49h-332.38c-15.75,0-28.56-10.07-28.56-22.45v-176.08c0-12.38,12.81-22.45,28.56-22.45h332.38c15.75,0,28.56,10.07,28.56,22.45v176.08c-.05,12.38-12.81,22.45-28.56,22.45ZM1263.74,668.11c-8.98,0-16.33,5.75-16.33,12.84v176.08c0,7.06,7.31,12.84,16.33,12.84h332.38c8.98,0,16.33-5.75,16.33-12.84v-176.08c0-7.06-7.31-12.84-16.33-12.84h-332.38Z" style="fill: #3e3a39;"/>
    <path d="M1345.27,760.52c0,36.75,37.89,66.54,84.64,66.54s84.64-29.79,84.64-66.54-37.89-66.54-84.64-66.54-84.64,29.79-84.64,66.54Z" style="fill: #938d7b;"/>
    <path d="M1429.91,829.75c-48.55,0-88.02-31.04-88.02-69.2s39.48-69.2,88.02-69.2,88.02,31.04,88.02,69.2-39.48,69.2-88.02,69.2ZM1429.91,696.67c-44.8,0-81.26,28.66-81.26,63.88s36.46,63.85,81.26,63.85,81.26-28.66,81.26-63.88-36.46-63.85-81.26-63.85Z" style="fill: #595757;"/>
    <path d="M1358.17,760.52c-.02,31.15,32.09,56.41,71.71,56.42,39.62.01,71.75-25.23,71.77-56.37v-.05c0-31.15-32.12-56.4-71.74-56.4s-71.74,25.25-71.74,56.4Z" style="fill: #666765;"/>
    <path d="M1385.78,760.52c0,19.16,19.76,34.69,44.13,34.69s44.13-15.53,44.13-34.69c0-19.16-19.75-34.69-44.12-34.7-24.37,0-44.13,15.53-44.13,34.69,0,0,0,0,0,.01Z" style="fill: #5aa4bf;"/>
    <path d="M1429.91,797.33c-25.81,0-46.83-16.53-46.83-36.82s21.02-36.82,46.83-36.82,46.83,16.53,46.83,36.82-21.02,36.82-46.83,36.82ZM1429.91,727.99c-22.83,0-41.37,14.61-41.37,32.53s18.59,32.53,41.37,32.53,41.37-14.61,41.37-32.53-18.54-32.53-41.37-32.53Z" style="fill: #595757;"/>
    <path d="M1437.49,746.33c0,5.23,5.39,9.47,12.05,9.47s12.05-4.24,12.05-9.47-5.39-9.47-12.05-9.47-12.05,4.24-12.05,9.47h0Z" style="fill: #fff;"/>
    <path d="M1364.89,846.04h126.83c5.14,0,9.79,1.88,12.81,4.79,4.06-1.21,6.99-4.33,6.99-7.95,0-4.68-4.87-8.51-10.83-8.51h-143.43c-5.96,0-10.83,3.83-10.83,8.51,0,3.33,2.48,6.21,6,7.63,3.07-2.73,7.49-4.47,12.45-4.47Z" style="fill: #1a1a1a;"/>
    <path d="M1508.19,858.88c0-3.05-1.35-5.82-3.65-8.02-1.17.35-2.48.57-3.84.57h-143.43c-1.71,0-3.34-.32-4.78-.89-2.48,2.23-4.02,5.18-4.02,8.37l-6.36,22.45c0,7.06,7.99,12.84,17.78,12.84h136.93c9.79,0,17.78-5.78,17.78-12.84l-6.41-22.49h0Z" style="fill: #938d7b;"/>
    <path d="M1500.7,851.39c1.35,0,2.62-.21,3.84-.57-3.02-2.91-7.62-4.79-12.81-4.79h-126.83c-4.96,0-9.38,1.74-12.41,4.47,1.44.57,3.07.89,4.78.89h143.43Z" style="fill: #717071;"/>
    <path d="M1548.93,744.06c0,6.46,6.67,11.71,14.89,11.71s14.89-5.24,14.89-11.71-6.67-11.71-14.89-11.71-14.89,5.24-14.89,11.71Z" style="fill: #717071;"/>
    <path d="M1563.82,756.79c-8.93,0-16.24-5.71-16.24-12.77s7.26-12.77,16.24-12.77,16.24,5.71,16.24,12.77-7.26,12.77-16.24,12.77ZM1563.82,733.42c-7.44,0-13.54,4.75-13.54,10.64s6.05,10.64,13.54,10.64,13.54-4.75,13.54-10.64-6.09-10.64-13.54-10.64Z" style="fill: #595757;"/>
    <path d="M1567.33,741.48c-.49,2.02,4.38,5.71,6.93,6.7,2.55.99,5.01.16,5.5-1.85.49-2.02-1.18-4.46-3.73-5.45-.47-.18-.96-.31-1.82-3.17-.39-2.23-3.76-4.36-6.33-4.62-2.57-.26-4.33,1.33-3.95,3.56.29,1.67,1.72,3.28,3.39,4.83Z" style="fill: #b4b4b5;"/>
    <path d="M1269.6,744.06c0,6.48,6.69,11.74,14.93,11.74s14.93-5.26,14.93-11.74-6.69-11.74-14.93-11.74-14.93,5.26-14.93,11.74Z" style="fill: #c71f1f;"/>
    <path d="M1284.54,757.39c-9.38,0-17.01-5.99-17.01-13.37s7.62-13.37,17.01-13.37,17.01,5.99,17.01,13.37-7.62,13.37-17.01,13.37ZM1284.54,733.88c-7.13,0-12.9,4.54-12.9,10.14s5.78,10.14,12.9,10.14,12.9-4.54,12.9-10.14-5.78-10.14-12.9-10.14Z" style="fill: #fff;"/>
    <path d="M1302.22,716.67h-35.37c-.9,0-1.62-.57-1.62-1.28v-16.92c0-.71.72-1.28,1.62-1.28h35.37c.9,0,1.62.57,1.62,1.28v16.92c0,.71-.72,1.28-1.62,1.28Z" style="fill: #b69a5d;"/>
    <path d="M1577.4,716.67h-23.64c-.77,0-1.35-.5-1.35-1.06v-18.59c0-.6.63-1.06,1.35-1.06h23.64c.77,0,1.35.5,1.35,1.06v18.59c0,.57-.59,1.06-1.35,1.06Z" style="fill: #656767;"/>
    <path d="M1574.64,717.74h-18.14c-3.02,0-5.46-1.92-5.46-4.29v-14.26c0-2.38,2.44-4.29,5.46-4.29h18.14c3.02,0,5.46,1.92,5.46,4.29v14.26c.05,2.38-2.44,4.29-5.46,4.29ZM1556.51,697.02c-1.53,0-2.75.96-2.75,2.16v14.26c0,1.21,1.22,2.16,2.75,2.16h18.14c1.53,0,2.75-.96,2.75-2.16v-14.26c0-1.21-1.22-2.16-2.75-2.16h-18.14Z" style="fill: #3e3a39;"/>
  </g>
  <path d="M1253.56,706.39c.28-.24.58-.31.89-.19.31.12.58.37.78.75.2.38.27.76.2,1.13v.11c-.13.81-.43,2.15-.9,4.01-.28,1.05-.62,2.31-1.02,3.81-.53,1.87-1.24,4.37-2.13,7.51-1.35,4.57-2.86,9.54-4.52,14.94-2.51,8.38-5.64,18.24-9.4,29.58-6.64,20.41-13.32,39.81-20.05,58.19-8.15,22.37-15.57,41.25-22.28,56.65-4.66,10.62-8.98,19.65-12.97,27.08-2.31,4.36-4.78,8.6-7.4,12.7-3.44,5.27-6.39,9.07-8.85,11.42-2.28,2.03-4.39,3.25-6.33,3.65-.54.12-.84.19-.89.19l-1.01-.12c-.38.04-1.09-.12-2.12-.46-.12-.06-.74-.48-1.87-1.24-.42-.33-.97-.86-1.65-1.59-1.7-2.1-3.06-4.81-4.06-8.13-.82-2.62-1.44-5.47-1.87-8.55-.64-4.67-1.03-10.31-1.15-16.92-.06-4.94.04-10.44.3-16.51.46-9.5,1.37-20.35,2.72-32.56,1.15-10.29,2.52-20.97,4.1-32.03,5.21-34.32,11.8-69.78,19.76-106.4-1.98,4.92-3.65,9.15-5,12.69-3.83,10.11-7.59,20.28-11.29,30.52-6.58,18.22-13.84,38.77-21.77,61.62l-21.41,61.92c-.17.52-3.72,10.86-10.66,31.01-4.61,13.24-8.19,23.54-10.75,30.91-.05,0-.08.04-.07.12-.05.08-.09.15-.14.23-.09.15-.19.31-.28.46-.05.08-.12.16-.22.24-.1.08-.2.16-.31.25-.1.08-.21.13-.32.14-.1.08-.24.13-.4.15l-.2.02h-.08s-.07.01-.12.02l-.25.02c0-.07-.09-.1-.26-.08-.69-.23,1.51-21.51,5.3-36.02,3.79-14.51,8.73-31.65,14.82-51.42s13.84-42.64,23.26-68.58c9.41-25.94,19.4-51.45,29.98-76.53.31-.76.78-1.24,1.43-1.44.64-.21,1.25-.08,1.82.38.57.46.95,1.11,1.15,1.97.2.85.14,1.66-.17,2.42-13.02,30.83-24.91,61.68-35.67,92.56-10.76,30.87-19.71,58.87-26.86,83.98,1.95-5.71,3.56-10.23,4.83-13.55l22.22-61.34c8.94-24.34,16.49-44.72,22.65-61.16,5.12-13.65,8.97-23.79,11.55-30.44,2.01-5.21,4.01-10.23,5.99-15.08l3.13-7.5c.31-.76.79-2.04,1.43-3.84l.41-1.68c.04-.15.09-.34.15-.56.06-.22.11-.43.14-.61.04-.18.07-.35.11-.5.12-.45.27-.83.46-1.13.24-.9.67-1.52,1.3-1.87.63-.35,1.27-.35,1.94-.02.67.34,1.17.95,1.51,1.82.34.88.38,1.73.14,2.55-.15.67-.46,1.21-.91,1.61-4.51,20.72-8.63,41.11-12.38,61.18-4.3,22.74-7.88,43.66-10.72,62.77-3.8,25.53-6.15,46.74-7.08,63.63-.29,5.85-.4,11.17-.36,15.97.09,6.25.4,11.53.96,15.84.38,2.65.88,5.12,1.5,7.39.7,2.55,1.6,4.54,2.68,5.97,1.15,1.56,2.47,2.31,3.96,2.25,1.43-.06,3.09-.8,4.99-2.21,1.18-.91,2.74-2.4,4.68-4.48,1.82-2.21,3.2-4.05,4.16-5.52,2.07-2.96,4.55-7.08,7.43-12.37,4-7.29,8.34-16.17,13.01-26.65,7.26-16.47,14.75-35.25,22.48-56.34,6.68-18.38,13.33-37.77,19.97-58.18,3.02-9.3,6.1-19.16,9.23-29.57,1.65-5.46,3.1-10.44,4.35-14.92.82-2.77,1.5-5.27,2.05-7.5.4-1.49.71-2.76.94-3.8.44-1.64.7-2.87.78-3.67v-.11c.06-.37.24-.68.52-.92Z" style="stroke: #231f20; stroke-miterlimit: 10;"/>
  <path d="M1409.18,763.67c.39,0,.73.11,1.02.34.29.23.51.5.65.82.15.32.22.66.22,1.02-.1.55-.36.98-.8,1.3-.44.32-.94.48-1.53.48-14.54-1.27-31.13-1.71-49.78-1.3-18.65.41-38.54,1.39-59.67,2.93l-1.6,2.32c-7.27,10.37-12.7,18.38-16.28,24.02-11.34,17.83-21.08,34.44-29.22,49.81-3.39,6.46-5.52,10.73-6.4,12.83l-1.45,3.14-1.31,3.27c-.58,1.18-1.36,3.32-2.33,6.41-1.74,5.64-1.26,8.92,1.45,9.83,2.04.55,4.17.59,6.4.14,1.84-.36,4.17-1.09,6.98-2.18,7.94-3.64,16.04-9.05,24.27-16.24,7.56-6.73,14.1-13.92,19.62-21.56.58-.82,1.31-.96,2.18-.41.87.55,1.02,1.23.44,2.05h-.15c-6.3,8.01-13.03,15.24-20.2,21.7-9.01,7.82-17.3,13.51-24.86,17.06-2.71,1.27-5.19,2.23-7.41,2.87-3.1.91-5.96,1.09-8.58.55-1.84-.36-3.29-1.23-4.36-2.59-.97-1.18-1.65-2.64-2.04-4.37-.58-2.55-.48-5.23.29-8.05l1.02-3.68c.1-.55.32-1.25.65-2.12.34-.87.56-1.34.65-1.43l1.31-3.41,1.45-3.41c.97-2.18,3.1-6.55,6.4-13.1,8.91-17.29,18.65-34.12,29.22-50.49,4.75-7.46,9.79-14.88,15.12-22.24-6.49.55-12.65,1.11-18.46,1.71-5.81.59-11.02,1.16-15.63,1.71-4.6.55-8.53,1.12-11.77,1.71-3.25.59-5.6,1.12-7.05,1.57-.68.27-1.21.41-1.6.41-.48,0-.92-.18-1.31-.55-.68-.64-.87-1.32-.58-2.05.2-.73,1.77-1.75,4.72-3.07,2.96-1.32,5.98-2.5,9.08-3.55,3.1-1.05,5.14-1.66,6.1-1.84.48,0,.97.16,1.45.48.48.32.77.75.87,1.3.09.73-.15,1.32-.73,1.77,10.47-1.27,23.11-2.5,37.94-3.68l2.76-3.82c.58-.73,1.45-1.84,2.62-3.34,1.16-1.5,1.84-2.34,2.03-2.52,3.39-4.18,6.83-7.87,10.32-11.05.68-.64,1.45-.93,2.33-.89.87.05,1.6.36,2.18.96.58.59.87,1.28.87,2.05s-.29,1.43-.87,1.98l-.15.27c-3,2.82-6.15,6.32-9.45,10.51-.2.27-.78,1.05-1.74,2.32-.97,1.27-1.74,2.23-2.33,2.87,48.74-3.46,84.4-3.96,106.98-1.5Z" style="stroke: #231f20; stroke-miterlimit: 10;"/>
  <path d="M1448.92,776.52c.58.07,1.05.32,1.4.74.35.42.48.88.39,1.39-.09.51-.37.92-.85,1.22-.48.31-1.01.42-1.59.35-10.69-1.59-23.79-2.45-39.3-2.6,0,.09-.05.13-.14.13-8.74,14.13-16.76,27.9-24.06,41.32-8.33,15.39-15.27,29.61-20.83,42.66-3.24,7.68-5.91,15.01-8.01,21.99-1.01,3.15-1.82,6.13-2.44,8.93l.42-.9c.56-1.11,1.47-1.42,2.74-.94,1.27.49,1.62,1.28,1.06,2.39l-6.71,13.58c-.56,1.19-4.17.03-4.09-.82.36-6.61,1.85-14.38,4.49-23.32,2.09-7.07,4.76-14.52,8-22.37,5.46-13.22,12.3-27.61,20.53-43.17,4.11-7.86,8.7-16.16,13.76-24.88-1.9,2.32-3.55,4.3-4.97,5.93-9.1,10.24-17.66,18.77-25.67,25.6-5.15,4.41-10.07,8.18-14.75,11.31-4.6,2.88-8.87,5.11-12.81,6.71-1.6,2.74-3.44,5.31-5.52,7.72-2.28,2.58-4.56,4.74-6.85,6.47-3.54,2.43-13.76,5.15-15.61,4.6-1.17-.4-2.2-1-3.09-1.79-.89-.79-1.54-1.73-1.94-2.82-.61-1.51-.79-3.33-.54-5.45.26-1.61.71-3.19,1.36-4.72,1.02-2.3,2.58-4.66,4.66-7.07,0-.08-.03-.19-.08-.32-.05-.13-.12-.19-.22-.19-.4-.84-.61-1.68-.63-2.53,0-.42.03-.85.12-1.27.09-.59.13-.97.12-1.15.72-3.06,2.46-5.72,5.22-7.97,2.38-1.9,5.26-3.44,8.63-4.6,3.85-1.17,7.24-1.61,10.15-1.32,2.13.22,3.89.78,5.27,1.68,1.47.99,2.47,2.37,2.99,4.14.41,1.26.59,2.78.52,4.56-.07,1.53-.38,3.01-.93,4.46-.47,1.02-.98,2.22-1.53,3.58,2.78-1.32,5.71-2.98,8.77-4.98,4.69-3.05,9.56-6.69,14.62-10.93,7.81-6.74,16.23-15.23,25.24-25.47,5.02-5.76,10.23-12.04,15.63-18.82-26.84.14-55.86,1.99-87.05,5.55-31.19,3.56-49.96,6.42-56.31,8.56-.67.27-1.2.4-1.59.41-.48,0-.92-.15-1.32-.48-.69-.5-.89-1.13-.62-1.89.27-.94,3.18-2.47,8.71-4.6,5.53-2.13,9.22-3.3,11.05-3.5.48-.09.97,0,1.46.29.49.29.79.68.9,1.19.11.42.02.85-.27,1.27,16.91-2.67,37.26-5.07,61.06-7.18,23.8-2.12,46.02-3.19,66.67-3.22.09-.17.19-.26.29-.26,4.23-6.85,8.18-13.14,11.84-18.88,2.92-4.28,5.23-7.63,6.93-10.03,1.04-1.54,2.21-3.21,3.54-5.02,1.89-2.32,3.31-4,4.26-5.03.47-.6,1.15-.93,2.02-.99.87-.06,1.65.16,2.34.66.69.5,1.06,1.12,1.13,1.88.06.76-.19,1.44-.76,2.05-.85.95-2.09,2.45-3.69,4.51-1.33,1.72-2.5,3.31-3.54,4.76-1.7,2.32-4.01,5.62-6.93,9.9-3.2,4.71-6.78,10.2-10.73,16.45,15.02.16,27.59.99,37.7,2.5ZM1327.61,848.03c1.23-1.55,2.41-3.13,3.54-4.76l-.14.13c-3.57,1.08-6.9,1.6-10,1.58-3.2-.03-5.97-.66-8.32-1.88-1.23,1.63-2.22,3.26-2.96,4.88-1.31,2.56-1.7,4.64-1.19,6.24.3.67.75,1.17,1.34,1.5.78.41,1.85.64,3.21.7,2.81.12,5.46-.73,7.95-2.55,2.2-1.56,4.39-3.51,6.57-5.83ZM1310.06,834.75v.76c.02.25.02.51.03.76,2.19-2.07,4.44-3.68,6.74-4.82.77-.35,1.57-.43,2.39-.23.83.2,1.49.63,1.99,1.3.4.59.51,1.22.33,1.9-.18.68-.61,1.24-1.28,1.67l-.14.13c-1.72,1.05-3.58,2.6-5.58,4.67,1.86.9,4,1.37,6.42,1.41,2.81.04,5.81-.44,8.99-1.43,1.16-.36,2.41-.8,3.75-1.34,1.12-2.05,2.05-4.06,2.79-6.02.46-1.28.72-2.55.8-3.82.07-1.53-.05-2.79-.37-3.8-.73-2.53-2.69-3.89-5.89-4.09-2.62-.29-5.57.14-8.84,1.3-3.08.99-5.67,2.35-7.77,4.08-2.19,1.9-3.6,4.13-4.23,6.68,0,.09-.05.25-.14.51v.38Z" style="stroke: #231f20; stroke-miterlimit: 10;"/>
  <path d="M1447.54,825.24c.82.59.9,1.25.22,1.98v.14c-4.56,4.91-11.34,9.1-20.35,12.56-3.88,1.45-10.76,3.55-20.64,6.28.48,2.18.68,4.28.58,6.28-.39,4.64-1.89,8.69-4.51,12.15-1.45,1.91-3.2,3.46-5.23,4.64-2.03,1.18-4.36,1.96-6.98,2.32-.39.09-.97.14-1.74.14h-1.89c-1.36-.09-2.66-.41-3.92-.96-2.62-1.09-4.55-2.78-5.81-5.05-.58-1.28-.92-2.5-1.02-3.68,0-1.55.2-2.78.58-3.69.68-2.09,2.08-3.91,4.21-5.46,1.36-1,3.15-2.05,5.38-3.14,1.55-.73,3.49-1.46,5.81-2.18,1.84-.64,4.22-1.32,7.12-2.05-.29-1.18-.58-2.23-.87-3.14-.29-.64-.7-1.73-1.24-3.28-.53-1.55-.99-2.93-1.38-4.16-.39-1.23-.77-2.44-1.16-3.62-1.07-4.28-1.26-8.37-.58-12.28.87-5.19,3.29-9.01,7.27-11.46,2.52-1.45,5.09-2.05,7.7-1.77,1.36.18,2.66.59,3.92,1.23,1.16.64,2.18,1.59,3.05,2.87,1.26,2,1.6,4.32,1.02,6.96-.49,2.28-1.5,4.23-3.05,5.87-.68.73-1.41.77-2.18.14-.58-.55-.73-1.14-.44-1.77v-.14c.87-1.64,1.31-3.14,1.31-4.5,0-1.64-.39-2.91-1.16-3.82-.78-.82-1.79-1.23-3.05-1.23s-2.47.36-3.63,1.09c-2.42,1.55-3.83,4.05-4.22,7.51-.49,3-.24,6.28.73,9.83.19.73,1.4,4.23,3.63,10.51.39.91.78,2.05,1.16,3.41,8.53-2.09,15.26-4.09,20.2-6,8.43-3.19,14.73-7.28,18.9-12.28.68-.73,1.43-.8,2.25-.2ZM1389.76,865.43c3.01-.36,5.48-1.84,7.41-4.44,1.94-2.59,3-5.57,3.2-8.94,0-1.18-.15-2.55-.44-4.09-2.71.82-4.94,1.55-6.69,2.18-2.23.73-4.02,1.45-5.38,2.18-1.84.91-3.29,1.91-4.36,3-1.07,1.18-1.67,2.52-1.82,4.03-.15,1.5.17,2.71.95,3.62.78,1,1.79,1.77,3.05,2.32.58.18,1.16.32,1.74.41l1.16-.14c.49,0,.87-.05,1.16-.14Z" style="stroke: #231f20; stroke-miterlimit: 10;"/>
  <path d="M1485.62,825.17c.82.64.89,1.32.22,2.05,0,.09-.05.14-.15.14-1.16,1.09-3.92,3.36-8.29,6.82-1.16,1-3.97,3.14-8.43,6.41-6.3,4.55-12.45,8.32-18.46,11.33-1.94.91-3.78,1.55-5.52,1.91-1.07.27-2.18.36-3.34.27-1.26,0-2.47-.23-3.63-.68-1.45-.46-2.57-1.36-3.34-2.73-.68-1.09-1.07-2.32-1.16-3.69-.09-1.82.24-3.82,1.02-6,.97-2.91,2.57-6.19,4.8-9.83,1.16-1.82,3.1-4.69,5.81-8.6.48-.73,1.14-1.16,1.96-1.3.82-.14,1.62.02,2.4.48.68.36,1.11.93,1.31,1.71.19.77.09,1.48-.29,2.12-.68,1.18-1.65,2.77-2.91,4.78-1.26,2-2.08,3.32-2.47,3.96-2.04,3.55-3.49,6.41-4.36,8.6-.58,1.45-.87,2.73-.87,3.82,0,.55.05.93.15,1.16.1.23.29.43.58.61,1.65,1,4.46.91,8.43-.27,2.81-.82,5.96-2.18,9.45-4.09,2.62-1.55,5.57-3.41,8.87-5.6,2.13-1.46,4.89-3.55,8.29-6.28,1.16-.91,2.52-2,4.07-3.27,1.74-1.64,2.91-2.82,3.49-3.55l.15-.14c.68-.73,1.43-.77,2.25-.14ZM1455.75,816.98c-.58,1.09-1.41.91-2.47-.55-.78-1.18-1.07-2.46-.87-3.82.48-2.09,2.18-4.59,5.09-7.51.29-.27.73-.14,1.31.41.58.55,1.07,1.25,1.45,2.12.39.87.44,1.57.15,2.12-.2.73-.95,1.98-2.25,3.75-1.31,1.77-2.11,2.93-2.4,3.48Z" style="stroke: #231f20; stroke-miterlimit: 10;"/>
  <path d="M1553.72,734.14c.48,1,.73,2,.73,3,0,.18-.03.39-.07.61-.05.23-.07.41-.07.55v.55c0,.23-.05.43-.15.61-.1,1.09-.39,2.41-.87,3.96-.68,2.09-1.79,4.55-3.34,7.37-3.88,7.1-9.79,15.83-17.73,26.2-6.59,8.55-13.28,16.7-20.06,24.43-9.59,10.83-17.01,18.52-22.24,23.06-.2.09-.39.18-.58.27-1.45,2.46-2.91,5-4.36,7.64,3.2-4,6.64-7.64,10.32-10.92,2.52-2.27,4.94-4.09,7.27-5.46.97-.45,1.65-.77,2.04-.96,1.45-.64,2.23-.96,2.33-.96l2.47-.55,1.31-.14c.87,0,1.5.09,1.89.27,1.26.36,2.18,1.23,2.76,2.59.29.91.39,1.87.29,2.87-.1,1.55-.58,3.09-1.45,4.64-.87,1.36-1.84,2.59-2.91,3.69-1.26,1.18-2.62,2.09-4.07,2.73-.97.45-1.7.27-2.18-.55-.39-.82-.2-1.46.58-1.91v-.14c2.23-1.36,3.87-3.18,4.94-5.46.58-1.27.92-2.36,1.02-3.28,0-.36-.05-.77-.15-1.23-.1-.18-.2-.27-.29-.27h-1.16c-.2,0-.51.07-.95.2s-.7.2-.8.2c-.29.09-.65.23-1.09.41-.44.18-.7.27-.8.27l-1.89.82c-2.03,1.09-4.31,2.64-6.83,4.64-2.33,1.73-4.6,3.82-6.83,6.28.39,3.82.92,6.82,1.6,9.01.87,3.18,2.18,5.82,3.92,7.92,1.94,2.36,4.22,3.82,6.83,4.37l.87.14h3.34c1.07-.09,2.62-.36,4.65-.82,3.1-.73,6.15-1.96,9.16-3.68,2.33-1.28,5.04-3.28,8.14-6,2.42-2.09,4.75-4.55,6.98-7.37,2.33-2.64,4.26-5.32,5.81-8.05.48-.91,1.19-1.14,2.11-.68.92.46,1.14,1.14.65,2.05h-.15c-3.78,5.55-8.24,10.87-13.37,15.97-2.71,2.55-5.43,4.82-8.14,6.82-3.78,2.73-6.93,4.64-9.45,5.73-2.33.82-4.22,1.36-5.67,1.64-.87.18-1.89.27-3.05.27h-1.45c-.87-.09-1.45-.18-1.74-.27-4.36-.91-7.8-3.14-10.32-6.69-2.23-2.91-3.59-6.37-4.07-10.37-.29-1.73-.39-3.6-.29-5.6-.1.09-.29.29-.58.61-.29.32-.49.57-.58.75-3.49,4.55-6.44,9.28-8.87,14.19-.19.45-.58.73-1.16.82-.87,1.36-2.13,1.82-3.78,1.36-.78-.27-1.38-.75-1.82-1.43s-.51-1.43-.22-2.25c.49-1.82,1.45-4.37,2.91-7.64.87-1.91,2.03-4.28,3.49-7.1,2.13-4,4.65-8.64,7.56-13.92,4.36-7.55,9.79-16.51,16.28-26.88,5.91-9.28,11.77-18.06,17.59-26.34,7.56-10.83,13.95-19.29,19.19-25.38,2.23-2.55,4.12-4.55,5.67-6,1.45-1.27,2.71-2.23,3.78-2.87.58-.27,1.07-.5,1.45-.68.29-.09.68-.14,1.16-.14.39-.09.63-.09.73,0,.29,0,.58.05.87.14.19,0,.53.14,1.02.41.39.18.68.36.87.55.48.36.82.82,1.02,1.36ZM1550.38,742.61c.39-1.36.63-2.5.73-3.41,0-.55-.12-1.05-.36-1.5-.24-.45-.56-.68-.95-.68-.1,0-.2.05-.29.14h-.15c0,.09.05.14.15.14.19.09.39.14.58.14-.1.09-.2.14-.29.14-.58.36-1.41,1.05-2.47,2.05-1.36,1.36-3.05,3.23-5.09,5.6-5.04,6-11.24,14.38-18.61,25.11-5.33,8.01-11.05,16.74-17.15,26.2-3.68,5.73-7.85,12.56-12.5,20.47,1.45-1.45,3.29-3.28,5.52-5.46,4.26-4.28,7.85-8.1,10.76-11.46,7.56-8.64,14.24-16.79,20.06-24.43,7.65-10.37,13.32-19.06,17.01-26.07,1.36-2.73,2.37-5.05,3.05-6.96Z" style="stroke: #231f20; stroke-miterlimit: 10;"/>
  <path d="M1604.45,825.17c.77.64.82,1.36.15,2.18-6.2,6-12.06,11.14-17.59,15.42-2.71,2.18-5.91,4.41-9.59,6.69-1.74,1.09-3.54,2.09-5.38,3-2.33,1.18-4.36,1.96-6.1,2.32-1.26.27-2.52.32-3.78.14-1.74-.18-3.15-.87-4.21-2.05-.58-.64-1.02-1.28-1.31-1.91-.39-.64-.58-1.36-.58-2.18-.1-1.28.05-2.5.44-3.68.77-2.73,2.37-6.1,4.8-10.1-1.74,1-3.39,1.86-4.94,2.59-1.94.82-3.73,1.5-5.38,2.05-2.52.73-4.65,1-6.4.82-1.84-.18-3.29-.84-4.36-1.98-1.07-1.14-1.6-2.57-1.6-4.3,0-2.18.39-4.19,1.16-6,2.81-6.19,7.85-11.6,15.12-16.24,1.94-1.18,3.68-2.05,5.23-2.59,2.33-.91,4.55-1.27,6.69-1.09,1.55.27,2.81.82,3.78,1.64,1.26.91,2.03,2.05,2.33,3.41.48,2.09.05,4.14-1.31,6.14-.68.82-1.45.96-2.33.41-.49-.36-.73-.82-.73-1.36.1-1.82-.1-3.05-.58-3.69-.2-.18-.44-.32-.73-.41-.58-.18-.97-.27-1.16-.27-1.36.18-2.52.5-3.49.96-1.07.46-2.42,1.18-4.07,2.18-2.71,1.82-5.14,3.82-7.27,6-2.42,2.46-4.17,4.87-5.23,7.23-.49,1-.78,2.23-.87,3.68v.41h.29c.87.18,2.18.09,3.92-.27,1.45-.36,3-.87,4.65-1.5,3.49-1.46,6.49-2.91,9.01-4.37,2.04-1.28,3.73-2.41,5.09-3.41.1-.09.17-.16.22-.2.05-.04.07-.11.07-.2,1.07-1.36,2.28-2.87,3.63-4.5,1.74-2,3.1-3.46,4.07-4.37.58-.64,1.31-.96,2.18-.96s1.6.27,2.18.82c.68.55,1.04,1.18,1.09,1.91.05.73-.17,1.41-.65,2.05l-.15.14c-1.07,1.18-2.23,2.59-3.49,4.23l-3.34,4.5c-1.84,2.27-4.02,5.28-6.54,9.01-2.52,3.82-4.17,6.87-4.94,9.14-.2.64-.29,1.27-.29,1.91v.41l.15.41c.19.27.48.5.87.68.58.18,1.26.23,2.03.14,3-.18,6.49-1.32,10.47-3.41,2.62-1.36,5.81-3.37,9.59-6,6.01-4.28,11.68-9.37,17.01-15.28.68-.82,1.4-.91,2.18-.27Z" style="stroke: #231f20; stroke-miterlimit: 10;"/>
  <path d="M1653.36,825.24c.82.59.9,1.25.22,1.98v.14c-4.56,4.91-11.34,9.1-20.35,12.56-3.88,1.45-10.76,3.55-20.64,6.28.48,2.18.68,4.28.58,6.28-.39,4.64-1.89,8.69-4.51,12.15-1.45,1.91-3.2,3.46-5.23,4.64-2.03,1.18-4.36,1.96-6.98,2.32-.39.09-.97.14-1.74.14h-1.89c-1.36-.09-2.66-.41-3.92-.96-2.62-1.09-4.55-2.78-5.81-5.05-.58-1.28-.92-2.5-1.02-3.68,0-1.55.2-2.78.58-3.69.68-2.09,2.08-3.91,4.21-5.46,1.36-1,3.15-2.05,5.38-3.14,1.55-.73,3.49-1.46,5.81-2.18,1.84-.64,4.22-1.32,7.12-2.05-.29-1.18-.58-2.23-.87-3.14-.29-.64-.7-1.73-1.24-3.28-.53-1.55-.99-2.93-1.38-4.16-.39-1.23-.77-2.44-1.16-3.62-1.07-4.28-1.26-8.37-.58-12.28.87-5.19,3.29-9.01,7.27-11.46,2.52-1.45,5.09-2.05,7.7-1.77,1.36.18,2.66.59,3.92,1.23,1.16.64,2.18,1.59,3.05,2.87,1.26,2,1.6,4.32,1.02,6.96-.49,2.28-1.5,4.23-3.05,5.87-.68.73-1.41.77-2.18.14-.58-.55-.73-1.14-.44-1.77v-.14c.87-1.64,1.31-3.14,1.31-4.5,0-1.64-.39-2.91-1.16-3.82-.78-.82-1.79-1.23-3.05-1.23s-2.47.36-3.63,1.09c-2.42,1.55-3.83,4.05-4.22,7.51-.49,3-.24,6.28.73,9.83.19.73,1.4,4.23,3.63,10.51.39.91.78,2.05,1.16,3.41,8.53-2.09,15.26-4.09,20.2-6,8.43-3.19,14.73-7.28,18.9-12.28.68-.73,1.43-.8,2.25-.2ZM1595.58,865.43c3.01-.36,5.48-1.84,7.41-4.44,1.94-2.59,3-5.57,3.2-8.94,0-1.18-.15-2.55-.44-4.09-2.71.82-4.94,1.55-6.69,2.18-2.23.73-4.02,1.45-5.38,2.18-1.84.91-3.29,1.91-4.36,3-1.07,1.18-1.67,2.52-1.82,4.03-.15,1.5.17,2.71.95,3.62.78,1,1.79,1.77,3.05,2.32.58.18,1.16.32,1.74.41l1.16-.14c.49,0,.87-.05,1.16-.14Z" style="stroke: #231f20; stroke-miterlimit: 10;"/>
  <path d="M1204.17,908.81c4.24,0,7.64.62,10.09,2.06,2.33,1.39,3.94,3.65,3.94,6.82,0,7.01-7.46,9.84-13.13,9.84-.66,0-1.25-.05-1.61-.1l-4.12-.86v7.49c0,4.03.42,4.13,5.91,4.61v1.34h-16.47v-1.34c5.13-.43,5.37-.72,5.37-4.7v-19.06c0-4.27-.66-4.37-5.37-4.75v-1.34h15.4ZM1199.34,924.9c.72.29,2.33.62,4.36.62,4,0,8.95-1.63,8.95-7.68,0-5.28-4.3-7.39-9.31-7.39-1.73,0-2.98.24-3.34.58-.48.34-.66.91-.66,2.21v11.67Z" style="stroke: #231f20; stroke-miterlimit: 10;"/>
  <path d="M1264.68,910.16c-4.95.38-5.43.62-5.43,4.66v19.25c0,4.03.54,4.18,5.43,4.61v1.34h-15.99v-1.34c4.95-.48,5.43-.58,5.43-4.61v-9.6h-20.41v9.6c0,3.98.48,4.13,5.37,4.61v1.34h-15.93v-1.34c4.83-.43,5.37-.58,5.37-4.61v-19.25c0-4.03-.54-4.27-5.37-4.66v-1.34h15.93v1.34c-4.77.34-5.37.67-5.37,4.66v7.63h20.41v-7.63c0-3.98-.66-4.32-5.43-4.66v-1.34h15.99v1.34Z" style="stroke: #231f20; stroke-miterlimit: 10;"/>
  <path d="M1290.52,908.14c10.2,0,19.33,6.29,19.33,15.84,0,10.32-8.71,16.75-19.69,16.75s-19.81-7.01-19.81-16.03,7.58-16.56,20.17-16.56ZM1289.33,909.92c-6.68,0-12.77,4.51-12.77,13.49s6.09,15.51,14.56,15.51c7.22,0,12.65-4.32,12.65-13.59,0-10.08-6.62-15.41-14.44-15.41Z" style="stroke: #231f20; stroke-miterlimit: 10;"/>
  <path d="M1346.79,916.35c-.54-1.54-1.25-3.12-1.91-3.98-.95-1.3-1.55-1.63-4.83-1.63h-5.97v23.38c0,3.74.48,4.27,6.15,4.56v1.34h-17.37v-1.34c5.55-.29,6.03-.77,6.03-4.56v-23.38h-5.43c-3.28,0-4.24.29-5.25,1.73-.72.96-1.19,2.11-1.97,3.89h-1.79c.36-2.93.72-5.95.9-8.64h1.37c.89,1.15,1.55,1.1,3.22,1.1h23.63c1.67,0,2.15-.19,3.04-1.1h1.43c0,2.26.24,5.71.54,8.5l-1.79.14Z" style="stroke: #231f20; stroke-miterlimit: 10;"/>
  <path d="M1373.65,908.14c10.2,0,19.34,6.29,19.34,15.84,0,10.32-8.71,16.75-19.69,16.75s-19.81-7.01-19.81-16.03,7.58-16.56,20.17-16.56ZM1372.46,909.92c-6.68,0-12.77,4.51-12.77,13.49s6.09,15.51,14.56,15.51c7.22,0,12.65-4.32,12.65-13.59,0-10.08-6.62-15.41-14.44-15.41Z" style="stroke: #231f20; stroke-miterlimit: 10;"/>
  <path d="M1438.52,926.91c-3.7.38-3.94.67-3.94,3.5v4.03c0,1.68.06,3.26.36,4.56-3.7.67-8.53,1.73-13.55,1.73-13.55,0-21.78-6.77-21.78-16.42,0-10.13,10.26-16.18,22.2-16.18,6.09,0,10.56.96,12.41,1.2.12,1.78.42,4.7.9,7.73l-1.79.29c-1.43-4.08-3.16-5.81-6.92-6.82-1.37-.38-3.82-.62-5.55-.62-9.13,0-15.04,5.04-15.04,13.83,0,7.63,4.89,15.22,16.47,15.22,2.03,0,3.88-.34,5.07-.82,1.25-.58,2.03-1.1,2.03-3.07v-3.94c0-3.5-.48-3.89-6.21-4.22v-1.39h15.34v1.39Z" style="stroke: #231f20; stroke-miterlimit: 10;"/>
  <path d="M1478.56,940.4c-.78,0-1.43-.05-2.21-.1-4.36-.24-6.68-1.15-9.31-4.13-2.21-2.45-4.36-5.47-6.27-7.92-1.19-1.54-1.97-1.82-5.01-1.82h-2.09v7.54c0,4.08.66,4.32,5.43,4.7v1.34h-15.93v-1.34c4.95-.43,5.37-.62,5.37-4.7v-19.15c0-4.08-.66-4.22-5.37-4.66v-1.34h15.22c4.36,0,7.28.43,9.55,1.63,2.45,1.25,4.06,3.41,4.06,6.34,0,4.13-3.28,6.72-7.7,8.26,1.07,1.49,3.64,4.7,5.43,6.86,2.21,2.54,3.34,3.74,4.71,4.94,1.61,1.39,2.98,1.92,4.36,2.21l-.24,1.34ZM1456.54,924.8c3.1,0,5.07-.38,6.56-1.39,2.33-1.39,3.28-3.31,3.28-5.9,0-5.14-4.24-7.01-8.83-7.01-1.73,0-2.74.19-3.16.48-.54.34-.72.82-.72,2.06v11.76h2.87Z" style="stroke: #231f20; stroke-miterlimit: 10;"/>
  <path d="M1504.1,940.02v-1.34c3.88-.38,4.36-.86,3.52-2.69-.78-1.87-1.97-4.27-3.22-7.3h-12.89c-.96,2.16-1.85,4.03-2.69,6-1.31,3.12-.48,3.5,4.42,3.98v1.34h-13.79v-1.34c3.76-.38,4.71-.72,6.8-5.04l12.35-25.2,1.91-.29c3.76,8.21,7.88,17.28,11.64,25.59,1.91,4.18,2.45,4.56,6.68,4.94v1.34h-14.74ZM1498.13,914.43c-1.91,4.13-3.94,8.5-5.73,12.29h11.16l-5.43-12.29Z" style="stroke: #231f20; stroke-miterlimit: 10;"/>
  <path d="M1536.62,908.81c4.24,0,7.64.62,10.09,2.06,2.33,1.39,3.94,3.65,3.94,6.82,0,7.01-7.46,9.84-13.13,9.84-.66,0-1.25-.05-1.61-.1l-4.12-.86v7.49c0,4.03.42,4.13,5.91,4.61v1.34h-16.47v-1.34c5.13-.43,5.37-.72,5.37-4.7v-19.06c0-4.27-.66-4.37-5.37-4.75v-1.34h15.4ZM1531.79,924.9c.72.29,2.33.62,4.36.62,4,0,8.95-1.63,8.95-7.68,0-5.28-4.3-7.39-9.31-7.39-1.73,0-2.98.24-3.34.58-.48.34-.66.91-.66,2.21v11.67Z" style="stroke: #231f20; stroke-miterlimit: 10;"/>
  <path d="M1597.13,910.16c-4.95.38-5.43.62-5.43,4.66v19.25c0,4.03.54,4.18,5.43,4.61v1.34h-15.99v-1.34c4.95-.48,5.43-.58,5.43-4.61v-9.6h-20.41v9.6c0,3.98.48,4.13,5.37,4.61v1.34h-15.93v-1.34c4.83-.43,5.37-.58,5.37-4.61v-19.25c0-4.03-.54-4.27-5.37-4.66v-1.34h15.93v1.34c-4.77.34-5.37.67-5.37,4.66v7.63h20.41v-7.63c0-3.98-.66-4.32-5.43-4.66v-1.34h15.99v1.34Z" style="stroke: #231f20; stroke-miterlimit: 10;"/>
  <path d="M1636.58,910.16c-4.18.38-4.89.91-7.28,3.98-2.69,3.5-4.89,6.82-7.82,11.09-.72,1.1-.9,1.68-.9,2.83v5.9c0,3.98.54,4.27,6.09,4.7v1.34h-17.13v-1.34c5.43-.58,5.85-.67,5.85-4.7v-6.19c0-.96-.24-1.39-1.19-2.78-2.09-3.12-4.12-6.14-7.34-10.66-2.33-3.26-2.92-3.84-6.98-4.18v-1.34h14.68v1.34c-4.3.48-4.06,1.1-2.98,2.74,2.51,3.7,5.31,8.02,7.82,11.62,2.15-3.22,5.55-8.45,7.22-11.09,1.37-2.4,1.19-2.88-3.52-3.26v-1.34h13.49v1.34Z" style="stroke: #231f20; stroke-miterlimit: 10;"/>
  <g>
    <g>
      <polygon points="956.9 693.13 956.9 528.68 1650.64 528.68 1650.64 693.13 1660.31 693.13 1660.31 520.26 947.23 520.26 947.23 693.13 956.9 693.13" style="fill: #fd0;"/>
      <polygon points="1650.64 903.01 1650.64 968.72 956.9 968.72 956.9 903.01 947.23 903.01 947.23 977.15 1660.31 977.15 1660.31 903.01 1650.64 903.01" style="fill: #fd0;"/>
    </g>
    <g>
      <polygon points="956.9 693.13 956.9 528.68 1650.64 528.68 1650.64 693.13 1660.31 693.13 1660.31 520.26 947.23 520.26 947.23 693.13 956.9 693.13" style="fill: url(#Foliage);"/>
      <polygon points="1650.64 903.01 1650.64 968.72 956.9 968.72 956.9 903.01 947.23 903.01 947.23 977.15 1660.31 977.15 1660.31 903.01 1650.64 903.01" style="fill: url(#Foliage);"/>
    </g>
    <g>
      <polygon points="956.9 693.13 956.9 528.68 1650.64 528.68 1650.64 693.13 1660.31 693.13 1660.31 520.26 947.23 520.26 947.23 693.13 956.9 693.13" style="fill: url(#Orange_Yellow); stroke: #fbb040; stroke-miterlimit: 10;"/>
      <polygon points="1650.64 903.01 1650.64 968.72 956.9 968.72 956.9 903.01 947.23 903.01 947.23 977.15 1660.31 977.15 1660.31 903.01 1650.64 903.01" style="fill: url(#Orange_Yellow-2); stroke: #fbb040; stroke-miterlimit: 10;"/>
    </g>
  </g>
</svg>
