<?xml version="1.0" encoding="UTF-8"?>
<svg xmlns="http://www.w3.org/2000/svg" viewBox="0 0 227.14 103.5">
  <defs>
    <style>
      .cls-1 {
        fill: #fff;
      }

      .cls-2 {
        fill: #12070a;
        font-family: AnthoniSignatureRegular, 'Anthoni Signature';
        font-size: 14.19px;
      }
    </style>
  </defs>
  <g id="Vangelis_Ntotsikas" data-name="Vangelis Ntotsikas">
    <text class="cls-2" transform="translate(29.41 17.13) scale(1.26 1)"><tspan x="0" y="0">Vangelis Ntotsikas</tspan></text>
  </g>
  <g id="PHOTOGRAPHY_Image" data-name="PHOTOGRAPHY Image">
    <g>
      <path class="cls-1" d="M158.42,32.25h-11.77v-3.94h55.31v.37c-1.12-.15-1.51,1.08-2.35,1.5-.1-.77-.38-1.69-1.38-1.5.57,1.19,1.16,2.03.79,3.37.98.15.64-.64.97-1.23s1.41-1.52,1.97-1.96v3.37h-26.48l1.09-.37.4-1.51c-.28-.37-1.59-.11-2.07-.18-.21.74,1.17.2,1.37.38-.21,2.52-4.23.84-2.26-.94.94-.85,2.11-.51,3.24-.37,0-.89-2.22-.61-2.75-.47-1.94.48-2.65,3.09-.19,3.47h-4.9c1.38-.34,2.71-1.51,2.05-3-.45-1.01-3.35-.72-4.08.23-.85,1.1-.76,2.26.66,2.76h-8.24c1.38-.34,2.71-1.51,2.05-3-.45-1.01-3.35-.72-4.08.23-.85,1.1-.76,2.26.66,2.76ZM148.05,30.76c3.68.26,3.76-2.75-.2-2.06l-.8,3.36h.77s.23-1.29.23-1.29ZM153.32,28.68l-.76.02-.8,3.35h.77s.32-1.51.32-1.51h2.24s-.39,1.51-.39,1.51l.76-.02.8-3.35h-.77s-.32,1.51-.32,1.51h-2.24s.39-1.51.39-1.51ZM166.86,28.68h-3.92c-.19.76,1.3.19,1.57.38l-.79,2.9.68.1.7-3c.07-.07,2.51.16,1.76-.38ZM180.98,30.37c2.59-1.37-.34-2-1.94-1.67l-.8,3.36h.77c.13-.38-.02-1.5.5-1.51,1.08-.03,1.13.65,1.3,1.49l.76.02-.59-1.68ZM185.87,28.7c-.3-.05-.69-.08-.96.08-.58.33-1.95,2.68-2.55,3.28.95.28,1.02-.63,1.37-.84.27-.16,1.74-.17,1.98-.01l.19.85h.77s-.8-3.35-.8-3.35ZM189.04,30.76c3.68.26,3.76-2.75-.2-2.06l-.8,3.36h.77s.23-1.29.23-1.29ZM194.12,28.68l-.76.02-.8,3.35h.77s.32-1.51.32-1.51h2.24s-.39,1.51-.39,1.51l.76-.02.8-3.35h-.77s-.32,1.51-.32,1.51h-2.24s.39-1.51.39-1.51Z"/>
      <path d="M159.8,32.25h-1.37c-1.42-.51-1.51-1.67-.66-2.76.74-.95,3.64-1.24,4.08-.23.66,1.49-.68,2.66-2.05,3ZM159.35,29.1c-1.42.31-1.94,2.66-.23,2.77,2.3.14,3.25-3.43.23-2.77Z"/>
      <path d="M169.41,32.25h-1.37c-1.42-.51-1.51-1.67-.66-2.76.74-.95,3.64-1.24,4.08-.23.66,1.49-.68,2.66-2.05,3ZM168.96,29.1c-1.42.31-1.94,2.66-.23,2.77,2.3.14,3.25-3.43.23-2.77Z"/>
      <path d="M174.31,32.25c-2.46-.38-1.75-2.99.19-3.47.53-.13,2.75-.42,2.75.47-1.13-.14-2.3-.47-3.24.37-1.97,1.78,2.05,3.47,2.26.94-.2-.17-1.59.37-1.37-.38.49.07,1.79-.19,2.07.18l-.4,1.51-1.09.37h-1.18Z"/>
      <path d="M201.97,28.87c-.56.44-1.65,1.39-1.97,1.96s.01,1.38-.97,1.23c.38-1.34-.22-2.19-.79-3.37,1-.2,1.28.73,1.38,1.5.84-.42,1.23-1.65,2.35-1.5v.19Z"/>
      <path d="M180.98,30.37l.59,1.68-.76-.02c-.16-.84-.22-1.52-1.3-1.49-.52.01-.37,1.13-.5,1.5h-.77s.8-3.34.8-3.34c1.61-.32,4.53.3,1.94,1.67ZM179.41,30.18c2,.25,2.65-1.41.21-1.11l-.21,1.11Z"/>
      <polygon points="153.32 28.68 152.93 30.18 155.17 30.19 155.49 28.7 156.26 28.68 155.46 32.04 154.7 32.06 155.09 30.56 152.85 30.55 152.53 32.05 151.75 32.06 152.56 28.7 153.32 28.68"/>
      <polygon points="194.12 28.68 193.73 30.18 195.97 30.19 196.29 28.7 197.06 28.68 196.26 32.04 195.5 32.06 195.89 30.56 193.65 30.55 193.33 32.05 192.55 32.06 193.36 28.7 194.12 28.68"/>
      <path d="M185.87,28.7l.8,3.36h-.77s-.19-.86-.19-.86c-.23-.16-1.71-.14-1.98.01-.36.21-.42,1.12-1.37.84.6-.6,1.97-2.95,2.55-3.28.27-.15.66-.13.96-.08ZM184.12,30.93l1.48-.18-.31-1.32c-.12-.09-1.34,1.36-1.17,1.5Z"/>
      <path d="M148.05,30.76l-.23,1.28h-.77s.8-3.34.8-3.34c3.96-.69,3.87,2.32.2,2.06ZM148.22,30.37l1.57-.28c.68-1.08-.43-1.14-1.37-1.02l-.21,1.3Z"/>
      <path d="M189.04,30.76l-.23,1.28h-.77s.8-3.34.8-3.34c3.96-.69,3.87,2.32.2,2.06ZM189.22,30.37l1.57-.28c.68-1.08-.43-1.14-1.37-1.02l-.21,1.3Z"/>
      <path d="M166.86,28.68c.75.54-1.68.32-1.76.38l-.7,3-.68-.1.79-2.9c-.27-.19-1.76.39-1.57-.38h3.92Z"/>
      <path class="cls-1" d="M159.35,29.1c3.02-.66,2.08,2.91-.23,2.77-1.72-.11-1.19-2.45.23-2.77Z"/>
      <path class="cls-1" d="M168.96,29.1c3.02-.66,2.08,2.91-.23,2.77-1.72-.11-1.19-2.45.23-2.77Z"/>
      <path class="cls-1" d="M179.41,30.18l.21-1.11c2.44-.3,1.8,1.36-.21,1.11Z"/>
      <path class="cls-1" d="M184.12,30.93c-.17-.14,1.05-1.59,1.17-1.5l.31,1.32-1.48.18Z"/>
      <path class="cls-1" d="M148.22,30.37l.21-1.3c.94-.12,2.05-.06,1.37,1.02l-1.57.28Z"/>
      <path class="cls-1" d="M189.22,30.37l.21-1.3c.94-.12,2.05-.06,1.37,1.02l-1.57.28Z"/>
    </g>
  </g>
</svg>